<svg xmlns="http://www.w3.org/2000/svg" xmlns:xlink="http://www.w3.org/1999/xlink" width="500" zoomAndPan="magnify" viewBox="0 0 375 374.999991" height="500" preserveAspectRatio="xMidYMid meet" version="1.0"><defs><clipPath id="832dfd126f"><path d="M 28.3125 0 L 347 0 L 347 375 L 28.3125 375 Z M 28.3125 0 " clip-rule="nonzero"/></clipPath><clipPath id="4d8e63d3c9"><path d="M 107 88.972656 L 163.730469 88.972656 L 163.730469 168.472656 L 107 168.472656 Z M 107 88.972656 " clip-rule="nonzero"/></clipPath><clipPath id="483a470315"><path d="M 203 202.492188 L 275 202.492188 L 275 250.492188 L 203 250.492188 Z M 203 202.492188 " clip-rule="nonzero"/></clipPath><clipPath id="d5438dc360"><path d="M 213.402344 89 L 276.402344 89 L 276.402344 168.472656 L 213.402344 168.472656 Z M 213.402344 89 " clip-rule="nonzero"/></clipPath><clipPath id="db6913c962"><path d="M 96 223 L 106 223 L 106 253.628906 L 96 253.628906 Z M 96 223 " clip-rule="nonzero"/></clipPath><clipPath id="f696975150"><path d="M 94.335938 199.628906 L 175.335938 199.628906 L 175.335938 236 L 94.335938 236 Z M 94.335938 199.628906 " clip-rule="nonzero"/></clipPath></defs><rect x="-37.5" width="450" fill="#ffffff" y="-37.499999" height="449.999989" fill-opacity="1"/><rect x="-37.5" width="450" fill="#ffffff" y="-37.499999" height="449.999989" fill-opacity="1"/><path fill="#000000" d="M 267.523438 326.046875 L 186.957031 372.164062 L 106.617188 325.386719 C 59.800781 298.125 31.074219 247.976562 31.238281 193.804688 L 31.636719 61.679688 L 188.289062 2.773438 L 344.273438 62.832031 L 343.875 194.828125 C 343.710938 249.066406 314.601562 299.097656 267.523438 326.046875 " fill-opacity="1" fill-rule="nonzero"/><g clip-path="url(#832dfd126f)"><path stroke-linecap="round" transform="matrix(0.0255043, 0, 0, -0.0255043, -43.117226, 418.490229)" fill="none" stroke-linejoin="round" d="M 12180.10337 3624.623478 L 9021.011503 1816.408672 L 5870.956115 3650.660791 C 4035.47871 4719.415908 2908.982022 6685.69252 2915.41477 8809.724616 L 2931.037158 13990.384096 L 9073.239289 16300.046917 L 15189.404108 13945.2017 L 15173.628559 8769.749683 C 15167.348972 6642.960695 14025.842539 4681.278903 12180.10337 3624.623478 Z M 12180.10337 3624.623478 " stroke="#ffffff" stroke-width="212.897" stroke-opacity="1" stroke-miterlimit="10"/></g><path fill="#000000" d="M 187.621094 50.824219 L 74.445312 93.382812 L 74.1875 177.214844 L 187.621094 177.214844 L 187.621094 50.824219 " fill-opacity="1" fill-rule="nonzero"/><path stroke-linecap="round" transform="matrix(0.022557, 0, 0, -0.022557, -43.117226, 418.490229)" fill="none" stroke-linejoin="round" d="M 10229.629687 16300.092457 L 5211.965305 14413.208208 L 5200.709112 10696.759708 L 10229.629687 10696.759708 Z M 10229.629687 16300.092457 " stroke="#ffffff" stroke-width="240.72099" stroke-opacity="1" stroke-miterlimit="10"/><path fill="#ffffff" d="M 301.035156 177.210938 L 301.285156 94.222656 L 188.105469 50.644531 L 187.621094 50.824219 L 187.621094 177.210938 L 301.035156 177.210938 " fill-opacity="1" fill-rule="nonzero"/><path stroke-linecap="round" transform="matrix(0.0225679, 0, 0, -0.0225679, -43.117226, 418.490229)" fill="none" stroke-linejoin="round" d="M 15249.980595 10691.42838 L 15261.058271 14369.043738 L 10245.986618 16300.021144 L 10224.52362 16292.059065 L 10224.52362 10691.42838 Z M 15249.980595 10691.42838 " stroke="#ffffff" stroke-width="240.60201" stroke-opacity="1" stroke-miterlimit="10"/><path fill="#ffffff" d="M 74.1875 177.210938 L 74.152344 189.253906 C 74.035156 228.558594 94.878906 264.945312 128.847656 284.722656 L 187.140625 318.667969 L 187.621094 318.390625 L 187.621094 177.210938 L 74.1875 177.210938 " fill-opacity="1" fill-rule="nonzero"/><path stroke-linecap="round" transform="matrix(0.0217669, 0, 0, -0.0217669, -43.117226, 418.490229)" fill="none" stroke-linejoin="round" d="M 5389.136219 11084.693749 L 5387.521093 10531.423637 C 5382.137343 8725.713657 6339.727132 7054.059068 7900.296997 6145.461411 L 10578.354047 4585.968295 L 10600.427425 4598.709838 L 10600.427425 11084.693749 Z M 5389.136219 11084.693749 " stroke="#ffffff" stroke-width="249.45" stroke-opacity="1" stroke-miterlimit="10"/><path fill="#000000" d="M 187.621094 177.210938 L 187.621094 318.390625 L 245.597656 285.203125 C 279.753906 265.648438 300.875 229.347656 300.996094 189.992188 L 301.035156 177.210938 L 187.621094 177.210938 " fill-opacity="1" fill-rule="nonzero"/><path stroke-linecap="round" transform="matrix(0.0217669, 0, 0, -0.0217669, -43.117226, 418.490229)" fill="none" stroke-linejoin="round" d="M 10600.427425 11084.693749 L 10600.427425 4598.709838 L 13263.948348 6123.388033 C 14833.132215 7021.756564 15803.463547 8689.463069 15809.026756 10497.506008 L 15810.82134 11084.693749 Z M 10600.427425 11084.693749 " stroke="#ffffff" stroke-width="249.45" stroke-opacity="1" stroke-miterlimit="10"/><g clip-path="url(#4d8e63d3c9)"><path fill="#ffffff" d="M 108.640625 149.574219 L 108.640625 166.269531 C 108.640625 167.980469 109.753906 168.765625 111.140625 168.765625 L 161.484375 168.765625 C 163.800781 168.765625 164 167.3125 164 165.335938 L 164 142.65625 C 164 141.25 162.542969 138.097656 160.8125 139.875 C 158.714844 142.058594 158.730469 140.113281 156.710938 140.785156 C 154.695312 141.457031 154 139.824219 152.605469 140.980469 C 151.210938 142.132812 149.53125 140.160156 148.667969 141.363281 C 147.652344 143.03125 146.222656 141.738281 145.742188 138.773438 C 145.351562 136.332031 143.480469 139.007812 142.417969 135.183594 C 141.746094 131.742188 140.242188 133.054688 139.402344 130.128906 C 138.757812 127.894531 137.464844 127.382812 136.179688 128.5 C 134.886719 129.617188 132.785156 130.839844 132.242188 128.433594 C 131.765625 126.671875 133.734375 126.363281 133.257812 124.253906 C 132.785156 122.152344 133.574219 119.261719 134.082031 117.894531 C 134.585938 116.523438 133.121094 116.167969 132.015625 116.453125 C 130.914062 116.738281 130.550781 116.3125 129.253906 114.535156 C 127.964844 112.757812 123.925781 108.613281 122.363281 108.136719 C 120.804688 107.664062 120.972656 107.390625 121.414062 106.101562 C 121.855469 104.8125 121.082031 104.6875 120.359375 103.59375 L 118.675781 101.027344 C 117.902344 99.855469 117.816406 99.15625 117.816406 97.820312 L 117.816406 90.320312 C 117.816406 89.332031 117.269531 88.953125 116.546875 88.953125 L 109.925781 88.953125 C 109.046875 88.953125 108.789062 89.621094 108.789062 90.3125 L 108.789062 118.417969 C 108.789062 118.417969 108.753906 119.878906 109.503906 120.894531 C 110.25 121.910156 109.402344 124.253906 110.789062 125.375 C 112.183594 126.496094 114.523438 126.628906 113.914062 128.125 C 113.300781 129.617188 112.457031 131.011719 111.945312 132.671875 C 111.433594 134.335938 110.042969 134.679688 109.875 136.132812 C 109.703125 137.59375 106.074219 141.328125 107.429688 143.15625 C 108.789062 144.992188 110.082031 145.363281 109.433594 147.402344 C 108.789062 149.441406 108.640625 148.800781 108.640625 149.574219 Z M 108.640625 149.574219 " fill-opacity="1" fill-rule="nonzero"/></g><g clip-path="url(#483a470315)"><path fill="#ffffff" d="M 272.539062 224.871094 C 269.433594 213.027344 265.855469 205.234375 257.609375 202.992188 C 256.351562 202.652344 255.167969 202.488281 253.988281 202.488281 C 251.5 202.488281 249.496094 203.238281 247.558594 203.960938 C 245.773438 204.628906 243.777344 205.363281 241.019531 205.609375 L 238.957031 205.671875 C 238.957031 205.679688 232.722656 204.765625 230.554688 203.953125 C 228.625 203.230469 226.625 202.484375 224.148438 202.484375 C 222.964844 202.484375 221.78125 202.648438 220.523438 202.992188 C 212.269531 205.230469 208.691406 213.023438 205.59375 224.871094 C 202 238.59375 202.992188 247.792969 208.316406 250.109375 C 209.183594 250.492188 210.097656 250.683594 211.027344 250.683594 C 215.765625 250.683594 220.117188 245.707031 223.300781 242.066406 L 224.164062 241.0625 C 226.757812 238.03125 232.191406 236.292969 239.066406 236.292969 C 246.542969 236.292969 251.136719 237.765625 253.964844 241.070312 L 254.832031 242.074219 C 258.007812 245.707031 262.359375 250.679688 267.097656 250.679688 C 268.035156 250.679688 268.945312 250.488281 269.804688 250.109375 C 275.132812 247.792969 276.125 238.59375 272.539062 224.871094 Z M 227.75 225.800781 L 224.195312 225.800781 L 224.195312 229.242188 C 224.195312 230.503906 223.082031 231.570312 221.769531 231.570312 C 220.453125 231.570312 219.339844 230.503906 219.339844 229.242188 L 219.339844 225.800781 L 216 225.800781 C 214.742188 225.800781 213.675781 224.6875 213.675781 223.371094 C 213.675781 222.054688 214.742188 220.941406 216 220.941406 L 219.339844 220.941406 L 219.339844 217.496094 C 219.339844 216.234375 220.453125 215.167969 221.769531 215.167969 C 223.082031 215.167969 224.195312 216.234375 224.195312 217.496094 L 224.195312 220.941406 L 227.75 220.941406 C 229.007812 220.941406 230.078125 222.054688 230.078125 223.371094 C 230.078125 224.6875 229.011719 225.800781 227.75 225.800781 Z M 252.996094 230.023438 C 251.027344 230.023438 249.425781 228.425781 249.425781 226.457031 C 249.425781 224.488281 251.03125 222.890625 252.996094 222.890625 C 254.960938 222.890625 256.558594 224.492188 256.558594 226.457031 C 256.558594 228.425781 254.960938 230.023438 252.996094 230.023438 Z M 259.652344 223.371094 C 257.683594 223.371094 256.085938 221.769531 256.085938 219.800781 C 256.085938 217.835938 257.683594 216.234375 259.652344 216.234375 C 261.617188 216.234375 263.21875 217.835938 263.21875 219.800781 C 263.21875 221.769531 261.617188 223.371094 259.652344 223.371094 Z M 259.652344 223.371094 " fill-opacity="1" fill-rule="nonzero"/></g><path fill="#000000" d="M 235.515625 151.441406 L 253.433594 151.441406 L 253.433594 154.324219 L 235.515625 154.324219 Z M 233.851562 157.652344 L 255.097656 157.652344 C 256.015625 157.652344 256.761719 156.90625 256.761719 155.988281 L 256.761719 149.777344 C 256.761719 148.859375 256.015625 148.113281 255.097656 148.113281 L 233.851562 148.113281 C 232.929688 148.113281 232.1875 148.859375 232.1875 149.777344 L 232.1875 155.988281 C 232.1875 156.90625 232.929688 157.652344 233.851562 157.652344 " fill-opacity="1" fill-rule="nonzero"/><g clip-path="url(#d5438dc360)"><path fill="#000000" d="M 272.664062 97.078125 C 271.957031 101.535156 269.847656 111.097656 264.484375 115.023438 C 266.078125 110.410156 267.136719 104.246094 267.441406 95.839844 C 267.46875 95.839844 267.5 95.847656 267.53125 95.847656 L 271.605469 95.847656 C 272.039062 95.847656 272.304688 96.082031 272.425781 96.222656 C 272.542969 96.363281 272.734375 96.660156 272.664062 97.078125 Z M 249.433594 126.347656 C 247.371094 127.207031 246.039062 129.21875 246.039062 131.476562 L 246.039062 135.933594 C 246.039062 138.300781 247.964844 140.226562 250.328125 140.226562 L 251.574219 140.226562 C 252.601562 140.226562 253.460938 140.953125 253.664062 141.921875 L 235.285156 141.921875 C 235.488281 140.953125 236.347656 140.226562 237.375 140.226562 L 238.621094 140.226562 C 240.984375 140.226562 242.910156 138.300781 242.910156 135.933594 L 242.910156 131.332031 C 242.910156 129.148438 241.65625 127.15625 239.714844 126.253906 C 232.304688 122.804688 225.0625 117.324219 224.757812 92.382812 L 264.191406 92.382812 C 263.875 120.328125 255.546875 123.800781 249.433594 126.347656 Z M 259.808594 159.707031 L 229.136719 159.707031 L 229.136719 145.25 L 259.808594 145.25 Z M 262.3125 165.359375 L 226.636719 165.359375 L 226.636719 163.035156 L 262.3125 163.035156 Z M 216.898438 97.078125 C 216.832031 96.660156 217.019531 96.363281 217.136719 96.222656 C 217.257812 96.082031 217.523438 95.847656 217.957031 95.847656 L 221.519531 95.847656 C 221.847656 104.046875 222.980469 110.105469 224.648438 114.6875 C 219.605469 110.574219 217.589844 101.410156 216.898438 97.078125 Z M 274.957031 94.066406 C 274.121094 93.082031 272.898438 92.519531 271.605469 92.519531 L 267.53125 92.519531 C 267.523438 92.519531 267.519531 92.519531 267.511719 92.519531 C 267.519531 91.925781 267.527344 91.335938 267.527344 90.71875 C 267.527344 89.800781 266.785156 89.054688 265.863281 89.054688 L 223.082031 89.054688 C 222.164062 89.054688 221.421875 89.800781 221.421875 90.71875 C 221.421875 91.335938 221.429688 91.925781 221.4375 92.519531 L 217.957031 92.519531 C 216.664062 92.519531 215.445312 93.082031 214.605469 94.066406 C 213.773438 95.042969 213.410156 96.332031 213.613281 97.601562 C 214.761719 104.800781 218.011719 117.035156 226.953125 119.617188 C 230.074219 124.871094 234.164062 127.34375 238.308594 129.269531 C 239.082031 129.628906 239.582031 130.4375 239.582031 131.332031 L 239.582031 135.933594 C 239.582031 136.457031 239.140625 136.898438 238.621094 136.898438 L 237.375 136.898438 C 234.511719 136.898438 232.15625 139.113281 231.929688 141.921875 L 227.472656 141.921875 C 226.554688 141.921875 225.808594 142.667969 225.808594 143.585938 L 225.808594 159.707031 L 224.972656 159.707031 C 224.050781 159.707031 223.308594 160.453125 223.308594 161.375 L 223.308594 167.023438 C 223.308594 167.945312 224.050781 168.6875 224.972656 168.6875 L 263.976562 168.6875 C 264.894531 168.6875 265.640625 167.945312 265.640625 167.023438 L 265.640625 161.375 C 265.640625 160.453125 264.894531 159.707031 263.976562 159.707031 L 263.136719 159.707031 L 263.136719 143.585938 C 263.136719 142.667969 262.394531 141.921875 261.476562 141.921875 L 257.019531 141.921875 C 256.789062 139.113281 254.4375 136.898438 251.574219 136.898438 L 250.328125 136.898438 C 249.796875 136.898438 249.363281 136.464844 249.363281 135.933594 L 249.363281 131.476562 C 249.363281 130.566406 249.894531 129.761719 250.714844 129.417969 C 255.144531 127.574219 259.347656 125.214844 262.445312 119.660156 C 271.507812 117.183594 274.796875 104.847656 275.953125 97.601562 C 276.15625 96.332031 275.792969 95.042969 274.957031 94.066406 " fill-opacity="1" fill-rule="nonzero"/></g><g clip-path="url(#db6913c962)"><path fill="#000000" d="M 105.515625 253.542969 L 96.570312 253.542969 L 99.550781 242.5625 L 99.550781 223.257812 L 102.535156 224.589844 L 102.535156 242.394531 Z M 105.515625 253.542969 " fill-opacity="1" fill-rule="nonzero"/></g><g clip-path="url(#f696975150)"><path fill="#000000" d="M 134.835938 235.574219 L 112.886719 225.839844 L 102.535156 221.261719 L 99.550781 219.929688 L 94.335938 217.683594 L 99.46875 215.355469 L 134.835938 199.714844 L 175.335938 217.683594 L 156.78125 225.839844 Z M 134.835938 235.574219 " fill-opacity="1" fill-rule="nonzero"/></g><path fill="#000000" d="M 161.421875 239.234375 L 134.835938 249.800781 L 108.25 239.234375 C 108.25 234.992188 109.242188 231.328125 110.980469 228.417969 L 134.835938 238.902344 L 158.605469 228.417969 C 160.425781 231.328125 161.421875 234.90625 161.421875 239.234375 Z M 161.421875 239.234375 " fill-opacity="1" fill-rule="nonzero"/></svg>