<svg xmlns="http://www.w3.org/2000/svg" xmlns:xlink="http://www.w3.org/1999/xlink" width="500" zoomAndPan="magnify" viewBox="0 0 375 374.999991" height="500" preserveAspectRatio="xMidYMid meet" version="1.0"><defs><g/><clipPath id="fe7caa7bfe"><path d="M 90.34375 8.105469 L 284.65625 8.105469 L 284.65625 236.707031 L 90.34375 236.707031 Z M 90.34375 8.105469 " clip-rule="nonzero"/></clipPath><clipPath id="5c712f7143"><path d="M 138 62.339844 L 172.894531 62.339844 L 172.894531 110.804688 L 138 110.804688 Z M 138 62.339844 " clip-rule="nonzero"/></clipPath><clipPath id="1f4bbcbd1d"><path d="M 197 131.542969 L 241 131.542969 L 241 160.804688 L 197 160.804688 Z M 197 131.542969 " clip-rule="nonzero"/></clipPath><clipPath id="94bd6721be"><path d="M 203.175781 62.339844 L 241.582031 62.339844 L 241.582031 110.804688 L 203.175781 110.804688 Z M 203.175781 62.339844 " clip-rule="nonzero"/></clipPath><clipPath id="7929d46fbd"><path d="M 131 144 L 138 144 L 138 162.71875 L 131 162.71875 Z M 131 144 " clip-rule="nonzero"/></clipPath><clipPath id="df1e3c7467"><path d="M 130.589844 129.796875 L 179.96875 129.796875 L 179.96875 152 L 130.589844 152 Z M 130.589844 129.796875 " clip-rule="nonzero"/></clipPath></defs><rect x="-37.5" width="450" fill="#ffffff" y="-37.499999" height="449.999989" fill-opacity="1"/><rect x="-37.5" width="450" fill="#ffffff" y="-37.499999" height="449.999989" fill-opacity="1"/><g fill="#000000" fill-opacity="1"><g transform="translate(50.642366, 270.572907)"><g><path d="M 8 -2.859375 C 8 -2.128906 8.054688 -1.597656 8.171875 -1.265625 C 8.285156 -0.941406 8.515625 -0.71875 8.859375 -0.59375 C 9.203125 -0.476562 9.75 -0.421875 10.5 -0.421875 C 10.570312 -0.421875 10.609375 -0.347656 10.609375 -0.203125 C 10.609375 -0.0664062 10.570312 0 10.5 0 C 9.726562 0 9.117188 -0.0078125 8.671875 -0.03125 L 5.984375 -0.078125 L 3.375 -0.03125 C 2.90625 -0.0078125 2.273438 0 1.484375 0 C 1.429688 0 1.40625 -0.0664062 1.40625 -0.203125 C 1.40625 -0.347656 1.429688 -0.421875 1.484375 -0.421875 C 2.234375 -0.421875 2.785156 -0.476562 3.140625 -0.59375 C 3.492188 -0.71875 3.734375 -0.945312 3.859375 -1.28125 C 3.984375 -1.625 4.046875 -2.148438 4.046875 -2.859375 L 4.046875 -19.171875 C 4.046875 -19.867188 3.984375 -20.382812 3.859375 -20.71875 C 3.734375 -21.050781 3.492188 -21.28125 3.140625 -21.40625 C 2.785156 -21.53125 2.234375 -21.59375 1.484375 -21.59375 C 1.429688 -21.59375 1.40625 -21.660156 1.40625 -21.796875 C 1.40625 -21.941406 1.429688 -22.015625 1.484375 -22.015625 L 3.375 -21.984375 C 4.457031 -21.941406 5.328125 -21.921875 5.984375 -21.921875 C 6.710938 -21.921875 7.617188 -21.941406 8.703125 -21.984375 L 10.5 -22.015625 C 10.570312 -22.015625 10.609375 -21.941406 10.609375 -21.796875 C 10.609375 -21.660156 10.570312 -21.59375 10.5 -21.59375 C 9.769531 -21.59375 9.226562 -21.519531 8.875 -21.375 C 8.519531 -21.238281 8.285156 -21 8.171875 -20.65625 C 8.054688 -20.320312 8 -19.800781 8 -19.09375 Z M 8 -2.859375 "/></g></g></g><g fill="#000000" fill-opacity="1"><g transform="translate(62.690855, 270.572907)"><g><path d="M 11.484375 0.140625 C 10.734375 0.140625 9.84375 0.101562 8.8125 0.03125 C 8.4375 0.0078125 7.972656 -0.0078125 7.421875 -0.03125 C 6.867188 -0.0625 6.25 -0.078125 5.5625 -0.078125 L 2.953125 -0.03125 C 2.484375 -0.0078125 1.851562 0 1.0625 0 C 1.007812 0 0.984375 -0.0664062 0.984375 -0.203125 C 0.984375 -0.347656 1.007812 -0.421875 1.0625 -0.421875 C 1.8125 -0.421875 2.359375 -0.476562 2.703125 -0.59375 C 3.054688 -0.71875 3.296875 -0.945312 3.421875 -1.28125 C 3.554688 -1.625 3.625 -2.148438 3.625 -2.859375 L 3.625 -19.171875 C 3.625 -19.867188 3.554688 -20.382812 3.421875 -20.71875 C 3.296875 -21.050781 3.0625 -21.28125 2.71875 -21.40625 C 2.382812 -21.53125 1.851562 -21.59375 1.125 -21.59375 C 1.050781 -21.59375 1.015625 -21.660156 1.015625 -21.796875 C 1.015625 -21.941406 1.050781 -22.015625 1.125 -22.015625 L 3 -21.984375 C 4.070312 -21.941406 4.925781 -21.921875 5.5625 -21.921875 C 6.53125 -21.921875 7.519531 -21.953125 8.53125 -22.015625 C 9.75 -22.066406 10.570312 -22.09375 11 -22.09375 C 13.363281 -22.09375 15.46875 -21.617188 17.3125 -20.671875 C 19.15625 -19.734375 20.582031 -18.453125 21.59375 -16.828125 C 22.601562 -15.210938 23.109375 -13.394531 23.109375 -11.375 C 23.109375 -9.101562 22.585938 -7.09375 21.546875 -5.34375 C 20.503906 -3.59375 19.09375 -2.238281 17.3125 -1.28125 C 15.539062 -0.332031 13.597656 0.140625 11.484375 0.140625 Z M 11.140625 -0.671875 C 12.640625 -0.671875 13.960938 -1.050781 15.109375 -1.8125 C 16.265625 -2.570312 17.164062 -3.703125 17.8125 -5.203125 C 18.457031 -6.710938 18.78125 -8.515625 18.78125 -10.609375 C 18.78125 -12.597656 18.472656 -14.410156 17.859375 -16.046875 C 17.253906 -17.679688 16.382812 -18.96875 15.25 -19.90625 C 14.125 -20.84375 12.820312 -21.3125 11.34375 -21.3125 C 9.882812 -21.3125 8.882812 -21.171875 8.34375 -20.890625 C 7.8125 -20.609375 7.546875 -20.007812 7.546875 -19.09375 L 7.546875 -3.234375 C 7.546875 -2.296875 7.789062 -1.632812 8.28125 -1.25 C 8.769531 -0.863281 9.722656 -0.671875 11.140625 -0.671875 Z M 11.140625 -0.671875 "/></g></g></g><g fill="#000000" fill-opacity="1"><g transform="translate(87.527669, 270.572907)"><g><path d="M 25.265625 -0.421875 C 25.378906 -0.421875 25.4375 -0.347656 25.4375 -0.203125 C 25.4375 -0.0664062 25.378906 0 25.265625 0 C 24.796875 0 24.066406 -0.0234375 23.078125 -0.078125 C 22.046875 -0.117188 21.304688 -0.140625 20.859375 -0.140625 C 20.273438 -0.140625 19.554688 -0.117188 18.703125 -0.078125 C 17.910156 -0.0234375 17.28125 0 16.8125 0 C 16.71875 0 16.671875 -0.0664062 16.671875 -0.203125 C 16.671875 -0.347656 16.71875 -0.421875 16.8125 -0.421875 C 17.414062 -0.421875 17.851562 -0.484375 18.125 -0.609375 C 18.394531 -0.742188 18.53125 -0.972656 18.53125 -1.296875 C 18.53125 -1.703125 18.296875 -2.375 17.828125 -3.3125 L 15.4375 -8.0625 L 6.765625 -8.0625 L 5.390625 -5 C 5.085938 -4.320312 4.9375 -3.6875 4.9375 -3.09375 C 4.9375 -2.25 5.234375 -1.59375 5.828125 -1.125 C 6.429688 -0.65625 7.238281 -0.421875 8.25 -0.421875 C 8.363281 -0.421875 8.421875 -0.347656 8.421875 -0.203125 C 8.421875 -0.0664062 8.363281 0 8.25 0 C 7.820312 0 7.207031 -0.0234375 6.40625 -0.078125 C 5.519531 -0.117188 4.75 -0.140625 4.09375 -0.140625 C 3.457031 -0.140625 2.691406 -0.117188 1.796875 -0.078125 C 0.992188 -0.0234375 0.347656 0 -0.140625 0 C -0.234375 0 -0.28125 -0.0664062 -0.28125 -0.203125 C -0.28125 -0.347656 -0.234375 -0.421875 -0.140625 -0.421875 C 0.515625 -0.421875 1.066406 -0.554688 1.515625 -0.828125 C 1.960938 -1.097656 2.410156 -1.578125 2.859375 -2.265625 C 3.304688 -2.960938 3.832031 -3.992188 4.4375 -5.359375 L 12.078125 -22.15625 C 12.128906 -22.226562 12.238281 -22.265625 12.40625 -22.265625 C 12.59375 -22.265625 12.695312 -22.226562 12.71875 -22.15625 L 21.53125 -4.828125 C 22.351562 -3.160156 23.03125 -2.007812 23.5625 -1.375 C 24.101562 -0.738281 24.671875 -0.421875 25.265625 -0.421875 Z M 7.21875 -9.0625 L 14.90625 -9.0625 L 10.859375 -17.09375 Z M 7.21875 -9.0625 "/></g></g></g><g fill="#000000" fill-opacity="1"><g transform="translate(112.752, 270.572907)"><g><path d="M 25.796875 -0.421875 C 25.859375 -0.421875 25.890625 -0.347656 25.890625 -0.203125 C 25.890625 -0.0664062 25.859375 0 25.796875 0 C 24.972656 0 24.3125 -0.0078125 23.8125 -0.03125 L 21.109375 -0.078125 L 17.9375 -0.03125 C 17.507812 -0.0078125 16.929688 0 16.203125 0 C 16.140625 0 16.109375 -0.0664062 16.109375 -0.203125 C 16.109375 -0.347656 16.140625 -0.421875 16.203125 -0.421875 C 17.078125 -0.421875 17.710938 -0.476562 18.109375 -0.59375 C 18.503906 -0.71875 18.769531 -0.941406 18.90625 -1.265625 C 19.050781 -1.597656 19.125 -2.128906 19.125 -2.859375 L 19.125 -10.953125 L 7.75 -10.953125 L 7.75 -2.859375 C 7.75 -2.148438 7.816406 -1.625 7.953125 -1.28125 C 8.097656 -0.945312 8.367188 -0.71875 8.765625 -0.59375 C 9.171875 -0.476562 9.804688 -0.421875 10.671875 -0.421875 C 10.722656 -0.421875 10.75 -0.347656 10.75 -0.203125 C 10.75 -0.0664062 10.722656 0 10.671875 0 C 9.847656 0 9.191406 -0.0078125 8.703125 -0.03125 L 5.640625 -0.078125 L 3 -0.03125 C 2.53125 -0.0078125 1.882812 0 1.0625 0 C 1.007812 0 0.984375 -0.0664062 0.984375 -0.203125 C 0.984375 -0.347656 1.007812 -0.421875 1.0625 -0.421875 C 1.882812 -0.421875 2.484375 -0.476562 2.859375 -0.59375 C 3.234375 -0.71875 3.488281 -0.945312 3.625 -1.28125 C 3.769531 -1.625 3.84375 -2.148438 3.84375 -2.859375 L 3.84375 -19.171875 C 3.84375 -19.867188 3.769531 -20.382812 3.625 -20.71875 C 3.488281 -21.050781 3.238281 -21.28125 2.875 -21.40625 C 2.507812 -21.53125 1.925781 -21.59375 1.125 -21.59375 C 1.050781 -21.59375 1.015625 -21.660156 1.015625 -21.796875 C 1.015625 -21.941406 1.050781 -22.015625 1.125 -22.015625 L 3.03125 -21.984375 C 4.113281 -21.941406 4.984375 -21.921875 5.640625 -21.921875 C 6.523438 -21.921875 7.554688 -21.941406 8.734375 -21.984375 L 10.671875 -22.015625 C 10.722656 -22.015625 10.75 -21.941406 10.75 -21.796875 C 10.75 -21.660156 10.722656 -21.59375 10.671875 -21.59375 C 9.828125 -21.59375 9.203125 -21.519531 8.796875 -21.375 C 8.398438 -21.238281 8.125 -21 7.96875 -20.65625 C 7.820312 -20.320312 7.75 -19.800781 7.75 -19.09375 L 7.75 -11.9375 L 19.125 -11.9375 L 19.125 -19.09375 C 19.125 -19.800781 19.050781 -20.320312 18.90625 -20.65625 C 18.769531 -21 18.503906 -21.238281 18.109375 -21.375 C 17.710938 -21.519531 17.078125 -21.59375 16.203125 -21.59375 C 16.140625 -21.59375 16.109375 -21.660156 16.109375 -21.796875 C 16.109375 -21.941406 16.140625 -22.015625 16.203125 -22.015625 L 17.9375 -21.984375 C 19.113281 -21.941406 20.171875 -21.921875 21.109375 -21.921875 C 21.742188 -21.921875 22.644531 -21.941406 23.8125 -21.984375 L 25.796875 -22.015625 C 25.859375 -22.015625 25.890625 -21.941406 25.890625 -21.796875 C 25.890625 -21.660156 25.859375 -21.59375 25.796875 -21.59375 C 24.992188 -21.59375 24.398438 -21.53125 24.015625 -21.40625 C 23.628906 -21.28125 23.367188 -21.050781 23.234375 -20.71875 C 23.109375 -20.382812 23.046875 -19.867188 23.046875 -19.171875 L 23.046875 -2.859375 C 23.046875 -2.148438 23.109375 -1.625 23.234375 -1.28125 C 23.367188 -0.945312 23.625 -0.71875 24 -0.59375 C 24.375 -0.476562 24.972656 -0.421875 25.796875 -0.421875 Z M 25.796875 -0.421875 "/></g></g></g><g fill="#000000" fill-opacity="1"><g transform="translate(139.66735, 270.572907)"><g><path d="M 12.890625 0.421875 C 10.710938 0.421875 8.769531 -0.0859375 7.0625 -1.109375 C 5.363281 -2.128906 4.046875 -3.515625 3.109375 -5.265625 C 2.179688 -7.015625 1.71875 -8.925781 1.71875 -11 C 1.71875 -13.414062 2.328125 -15.484375 3.546875 -17.203125 C 4.773438 -18.929688 6.347656 -20.226562 8.265625 -21.09375 C 10.179688 -21.96875 12.132812 -22.40625 14.125 -22.40625 C 16.351562 -22.40625 18.3125 -21.878906 20 -20.828125 C 21.695312 -19.785156 23 -18.40625 23.90625 -16.6875 C 24.8125 -14.976562 25.265625 -13.160156 25.265625 -11.234375 C 25.265625 -9.097656 24.695312 -7.132812 23.5625 -5.34375 C 22.4375 -3.5625 20.925781 -2.15625 19.03125 -1.125 C 17.144531 -0.09375 15.097656 0.421875 12.890625 0.421875 Z M 14.0625 -0.453125 C 15.375 -0.453125 16.550781 -0.832031 17.59375 -1.59375 C 18.644531 -2.363281 19.460938 -3.484375 20.046875 -4.953125 C 20.628906 -6.421875 20.921875 -8.175781 20.921875 -10.21875 C 20.921875 -12.375 20.59375 -14.300781 19.9375 -16 C 19.28125 -17.707031 18.328125 -19.039062 17.078125 -20 C 15.835938 -20.96875 14.382812 -21.453125 12.71875 -21.453125 C 10.582031 -21.453125 8.9375 -20.644531 7.78125 -19.03125 C 6.632812 -17.425781 6.0625 -15.179688 6.0625 -12.296875 C 6.0625 -10.015625 6.40625 -7.972656 7.09375 -6.171875 C 7.789062 -4.378906 8.742188 -2.976562 9.953125 -1.96875 C 11.160156 -0.957031 12.53125 -0.453125 14.0625 -0.453125 Z M 14.0625 -0.453125 "/></g></g></g><g fill="#000000" fill-opacity="1"><g transform="translate(166.653159, 270.572907)"><g/></g></g><g fill="#000000" fill-opacity="1"><g transform="translate(174.89687, 270.572907)"><g><path d="M 17.46875 -5.609375 C 17.46875 -5.648438 17.519531 -5.671875 17.625 -5.671875 C 17.6875 -5.671875 17.75 -5.648438 17.8125 -5.609375 C 17.875 -5.578125 17.90625 -5.550781 17.90625 -5.53125 C 17.664062 -3.695312 17.546875 -2.03125 17.546875 -0.53125 C 17.546875 -0.34375 17.507812 -0.207031 17.4375 -0.125 C 17.363281 -0.0390625 17.222656 0 17.015625 0 L 1.4375 0 C 1.375 0 1.34375 -0.0664062 1.34375 -0.203125 C 1.34375 -0.347656 1.375 -0.421875 1.4375 -0.421875 C 2.195312 -0.421875 2.742188 -0.476562 3.078125 -0.59375 C 3.421875 -0.71875 3.648438 -0.945312 3.765625 -1.28125 C 3.890625 -1.625 3.953125 -2.148438 3.953125 -2.859375 L 3.953125 -19.171875 C 3.953125 -19.867188 3.890625 -20.382812 3.765625 -20.71875 C 3.648438 -21.050781 3.414062 -21.28125 3.0625 -21.40625 C 2.707031 -21.53125 2.164062 -21.59375 1.4375 -21.59375 C 1.375 -21.59375 1.34375 -21.660156 1.34375 -21.796875 C 1.34375 -21.941406 1.375 -22.015625 1.4375 -22.015625 L 16.390625 -22.015625 C 16.617188 -22.015625 16.734375 -21.910156 16.734375 -21.703125 L 16.8125 -17.015625 C 16.8125 -16.972656 16.742188 -16.9375 16.609375 -16.90625 C 16.484375 -16.882812 16.410156 -16.910156 16.390625 -16.984375 C 16.003906 -18.347656 15.363281 -19.359375 14.46875 -20.015625 C 13.582031 -20.671875 12.410156 -21 10.953125 -21 L 9.90625 -21 C 9.195312 -21 8.675781 -20.84375 8.34375 -20.53125 C 8.019531 -20.226562 7.859375 -19.757812 7.859375 -19.125 L 7.859375 -11.9375 L 10.78125 -11.9375 C 12.144531 -11.9375 13.191406 -12.171875 13.921875 -12.640625 C 14.648438 -13.117188 15.015625 -13.78125 15.015625 -14.625 C 15.015625 -14.695312 15.078125 -14.734375 15.203125 -14.734375 C 15.328125 -14.734375 15.390625 -14.695312 15.390625 -14.625 L 15.359375 -11.453125 L 15.390625 -9.765625 C 15.441406 -8.960938 15.46875 -8.328125 15.46875 -7.859375 C 15.46875 -7.804688 15.394531 -7.78125 15.25 -7.78125 C 15.113281 -7.78125 15.046875 -7.804688 15.046875 -7.859375 C 15.046875 -8.816406 14.675781 -9.570312 13.9375 -10.125 C 13.195312 -10.675781 12.132812 -10.953125 10.75 -10.953125 L 7.859375 -10.953125 L 7.859375 -3 C 7.859375 -2.3125 7.984375 -1.800781 8.234375 -1.46875 C 8.492188 -1.144531 8.910156 -0.984375 9.484375 -0.984375 L 10.640625 -0.984375 C 12.472656 -0.984375 13.941406 -1.359375 15.046875 -2.109375 C 16.148438 -2.859375 16.957031 -4.023438 17.46875 -5.609375 Z M 17.46875 -5.609375 "/></g></g></g><g fill="#000000" fill-opacity="1"><g transform="translate(194.343567, 270.572907)"><g><path d="M 6.125 -18.46875 C 6.125 -17.613281 6.34375 -16.859375 6.78125 -16.203125 C 7.21875 -15.546875 7.753906 -14.96875 8.390625 -14.46875 C 9.023438 -13.976562 9.878906 -13.382812 10.953125 -12.6875 C 12.128906 -11.9375 13.066406 -11.273438 13.765625 -10.703125 C 14.472656 -10.140625 15.070312 -9.453125 15.5625 -8.640625 C 16.0625 -7.835938 16.3125 -6.90625 16.3125 -5.84375 C 16.3125 -4.625 15.984375 -3.535156 15.328125 -2.578125 C 14.671875 -1.628906 13.757812 -0.890625 12.59375 -0.359375 C 11.4375 0.160156 10.140625 0.421875 8.703125 0.421875 C 7.648438 0.421875 6.546875 0.273438 5.390625 -0.015625 C 4.242188 -0.304688 3.46875 -0.628906 3.0625 -0.984375 C 2.945312 -1.078125 2.859375 -1.164062 2.796875 -1.25 C 2.742188 -1.332031 2.71875 -1.46875 2.71875 -1.65625 L 2.609375 -7.265625 L 2.609375 -7.296875 C 2.609375 -7.390625 2.664062 -7.441406 2.78125 -7.453125 C 2.894531 -7.460938 2.96875 -7.421875 3 -7.328125 C 3.695312 -5.890625 4.3125 -4.722656 4.84375 -3.828125 C 5.375 -2.941406 6.039062 -2.15625 6.84375 -1.46875 C 7.65625 -0.789062 8.582031 -0.453125 9.625 -0.453125 C 10.5625 -0.453125 11.332031 -0.703125 11.9375 -1.203125 C 12.550781 -1.710938 12.859375 -2.582031 12.859375 -3.8125 C 12.859375 -4.84375 12.628906 -5.742188 12.171875 -6.515625 C 11.710938 -7.296875 11.15625 -7.953125 10.5 -8.484375 C 9.84375 -9.023438 8.9375 -9.671875 7.78125 -10.421875 C 6.65625 -11.148438 5.78125 -11.773438 5.15625 -12.296875 C 4.539062 -12.816406 4.007812 -13.4375 3.5625 -14.15625 C 3.113281 -14.882812 2.890625 -15.742188 2.890625 -16.734375 C 2.890625 -17.984375 3.242188 -19.035156 3.953125 -19.890625 C 4.671875 -20.742188 5.59375 -21.375 6.71875 -21.78125 C 7.851562 -22.195312 9.039062 -22.40625 10.28125 -22.40625 C 11.101562 -22.40625 11.9375 -22.328125 12.78125 -22.171875 C 13.632812 -22.023438 14.316406 -21.847656 14.828125 -21.640625 C 15.046875 -21.546875 15.1875 -21.441406 15.25 -21.328125 C 15.320312 -21.222656 15.359375 -21.085938 15.359375 -20.921875 L 15.359375 -15.75 C 15.359375 -15.675781 15.300781 -15.617188 15.1875 -15.578125 C 15.070312 -15.546875 15 -15.566406 14.96875 -15.640625 L 14.6875 -16.3125 C 14.101562 -17.789062 13.414062 -19.046875 12.625 -20.078125 C 11.84375 -21.117188 10.75 -21.640625 9.34375 -21.640625 C 8.394531 -21.640625 7.617188 -21.367188 7.015625 -20.828125 C 6.421875 -20.285156 6.125 -19.5 6.125 -18.46875 Z M 6.125 -18.46875 "/></g></g></g><g fill="#000000" fill-opacity="1"><g transform="translate(212.486773, 270.572907)"><g><path d="M 7.609375 -3 C 7.609375 -2.25 7.691406 -1.703125 7.859375 -1.359375 C 8.023438 -1.015625 8.335938 -0.769531 8.796875 -0.625 C 9.253906 -0.488281 9.988281 -0.421875 11 -0.421875 C 11.0625 -0.421875 11.09375 -0.347656 11.09375 -0.203125 C 11.09375 -0.0664062 11.0625 0 11 0 C 10.03125 0 9.273438 -0.0078125 8.734375 -0.03125 L 5.671875 -0.078125 L 3.09375 -0.03125 C 2.625 -0.0078125 1.992188 0 1.203125 0 C 1.128906 0 1.09375 -0.0664062 1.09375 -0.203125 C 1.09375 -0.347656 1.128906 -0.421875 1.203125 -0.421875 C 1.953125 -0.421875 2.492188 -0.476562 2.828125 -0.59375 C 3.171875 -0.71875 3.398438 -0.945312 3.515625 -1.28125 C 3.640625 -1.625 3.703125 -2.148438 3.703125 -2.859375 L 3.703125 -19.171875 C 3.703125 -19.867188 3.640625 -20.382812 3.515625 -20.71875 C 3.398438 -21.050781 3.164062 -21.28125 2.8125 -21.40625 C 2.46875 -21.53125 1.929688 -21.59375 1.203125 -21.59375 C 1.128906 -21.59375 1.09375 -21.660156 1.09375 -21.796875 C 1.09375 -21.941406 1.128906 -22.015625 1.203125 -22.015625 L 3.0625 -21.984375 C 4.144531 -21.941406 5.003906 -21.921875 5.640625 -21.921875 C 6.203125 -21.921875 6.867188 -21.953125 7.640625 -22.015625 C 7.953125 -22.046875 8.34375 -22.070312 8.8125 -22.09375 C 9.28125 -22.113281 9.816406 -22.125 10.421875 -22.125 C 12.816406 -22.125 14.707031 -21.625 16.09375 -20.625 C 17.488281 -19.625 18.1875 -18.082031 18.1875 -16 C 18.1875 -14.539062 17.804688 -13.304688 17.046875 -12.296875 C 16.296875 -11.285156 15.328125 -10.519531 14.140625 -10 C 12.960938 -9.488281 11.75 -9.234375 10.5 -9.234375 C 9.863281 -9.234375 9.3125 -9.289062 8.84375 -9.40625 C 8.789062 -9.40625 8.765625 -9.460938 8.765625 -9.578125 C 8.765625 -9.648438 8.78125 -9.722656 8.8125 -9.796875 C 8.851562 -9.867188 8.898438 -9.890625 8.953125 -9.859375 C 9.304688 -9.765625 9.703125 -9.71875 10.140625 -9.71875 C 11.222656 -9.71875 12.125 -10.222656 12.84375 -11.234375 C 13.5625 -12.242188 13.921875 -13.675781 13.921875 -15.53125 C 13.921875 -17.394531 13.523438 -18.832031 12.734375 -19.84375 C 11.953125 -20.851562 10.804688 -21.359375 9.296875 -21.359375 C 8.640625 -21.359375 8.191406 -21.203125 7.953125 -20.890625 C 7.722656 -20.585938 7.609375 -19.988281 7.609375 -19.09375 Z M 7.609375 -3 "/></g></g></g><g fill="#000000" fill-opacity="1"><g transform="translate(231.968692, 270.572907)"><g><path d="M 12.890625 0.421875 C 10.710938 0.421875 8.769531 -0.0859375 7.0625 -1.109375 C 5.363281 -2.128906 4.046875 -3.515625 3.109375 -5.265625 C 2.179688 -7.015625 1.71875 -8.925781 1.71875 -11 C 1.71875 -13.414062 2.328125 -15.484375 3.546875 -17.203125 C 4.773438 -18.929688 6.347656 -20.226562 8.265625 -21.09375 C 10.179688 -21.96875 12.132812 -22.40625 14.125 -22.40625 C 16.351562 -22.40625 18.3125 -21.878906 20 -20.828125 C 21.695312 -19.785156 23 -18.40625 23.90625 -16.6875 C 24.8125 -14.976562 25.265625 -13.160156 25.265625 -11.234375 C 25.265625 -9.097656 24.695312 -7.132812 23.5625 -5.34375 C 22.4375 -3.5625 20.925781 -2.15625 19.03125 -1.125 C 17.144531 -0.09375 15.097656 0.421875 12.890625 0.421875 Z M 14.0625 -0.453125 C 15.375 -0.453125 16.550781 -0.832031 17.59375 -1.59375 C 18.644531 -2.363281 19.460938 -3.484375 20.046875 -4.953125 C 20.628906 -6.421875 20.921875 -8.175781 20.921875 -10.21875 C 20.921875 -12.375 20.59375 -14.300781 19.9375 -16 C 19.28125 -17.707031 18.328125 -19.039062 17.078125 -20 C 15.835938 -20.96875 14.382812 -21.453125 12.71875 -21.453125 C 10.582031 -21.453125 8.9375 -20.644531 7.78125 -19.03125 C 6.632812 -17.425781 6.0625 -15.179688 6.0625 -12.296875 C 6.0625 -10.015625 6.40625 -7.972656 7.09375 -6.171875 C 7.789062 -4.378906 8.742188 -2.976562 9.953125 -1.96875 C 11.160156 -0.957031 12.53125 -0.453125 14.0625 -0.453125 Z M 14.0625 -0.453125 "/></g></g></g><g fill="#000000" fill-opacity="1"><g transform="translate(258.954502, 270.572907)"><g><path d="M 24.953125 -0.421875 C 24.992188 -0.421875 25.015625 -0.347656 25.015625 -0.203125 C 25.015625 -0.0664062 24.992188 0 24.953125 0 L 18.671875 0 C 18.160156 0 17.195312 -0.929688 15.78125 -2.796875 C 14.375 -4.671875 12.671875 -7.285156 10.671875 -10.640625 C 10.484375 -10.617188 10.210938 -10.609375 9.859375 -10.609375 C 8.941406 -10.609375 8.296875 -10.617188 7.921875 -10.640625 L 7.921875 -2.859375 C 7.921875 -2.128906 7.976562 -1.597656 8.09375 -1.265625 C 8.21875 -0.941406 8.445312 -0.71875 8.78125 -0.59375 C 9.125 -0.476562 9.671875 -0.421875 10.421875 -0.421875 C 10.472656 -0.421875 10.5 -0.347656 10.5 -0.203125 C 10.5 -0.0664062 10.472656 0 10.421875 0 C 9.648438 0 9.039062 -0.0078125 8.59375 -0.03125 L 5.921875 -0.078125 L 3.34375 -0.03125 C 2.875 -0.0078125 2.238281 0 1.4375 0 C 1.375 0 1.34375 -0.0664062 1.34375 -0.203125 C 1.34375 -0.347656 1.375 -0.421875 1.4375 -0.421875 C 2.195312 -0.421875 2.742188 -0.476562 3.078125 -0.59375 C 3.421875 -0.71875 3.65625 -0.945312 3.78125 -1.28125 C 3.914062 -1.625 3.984375 -2.148438 3.984375 -2.859375 L 3.984375 -19.171875 C 3.984375 -19.867188 3.921875 -20.382812 3.796875 -20.71875 C 3.679688 -21.050781 3.445312 -21.28125 3.09375 -21.40625 C 2.75 -21.53125 2.210938 -21.59375 1.484375 -21.59375 C 1.429688 -21.59375 1.40625 -21.660156 1.40625 -21.796875 C 1.40625 -21.941406 1.429688 -22.015625 1.484375 -22.015625 L 3.34375 -21.984375 C 4.425781 -21.941406 5.285156 -21.921875 5.921875 -21.921875 C 6.722656 -21.921875 7.554688 -21.953125 8.421875 -22.015625 C 8.722656 -22.046875 9.101562 -22.070312 9.5625 -22.09375 C 10.019531 -22.113281 10.53125 -22.125 11.09375 -22.125 C 13.238281 -22.125 14.894531 -21.726562 16.0625 -20.9375 C 17.238281 -20.15625 17.828125 -19.0625 17.828125 -17.65625 C 17.828125 -16.363281 17.472656 -15.191406 16.765625 -14.140625 C 16.066406 -13.097656 15.128906 -12.257812 13.953125 -11.625 C 15.828125 -8.8125 17.398438 -6.601562 18.671875 -5 C 19.941406 -3.40625 21.066406 -2.242188 22.046875 -1.515625 C 23.035156 -0.785156 24.003906 -0.421875 24.953125 -0.421875 Z M 7.921875 -11.625 C 8.484375 -11.53125 9.164062 -11.484375 9.96875 -11.484375 C 11.332031 -11.484375 12.3125 -11.863281 12.90625 -12.625 C 13.507812 -13.394531 13.8125 -14.625 13.8125 -16.3125 C 13.8125 -18.238281 13.53125 -19.566406 12.96875 -20.296875 C 12.40625 -21.023438 11.59375 -21.390625 10.53125 -21.390625 C 9.59375 -21.390625 8.921875 -21.210938 8.515625 -20.859375 C 8.117188 -20.503906 7.921875 -19.914062 7.921875 -19.09375 Z M 7.921875 -11.625 "/></g></g></g><g fill="#000000" fill-opacity="1"><g transform="translate(283.544704, 270.572907)"><g><path d="M 7.828125 -21.21875 C 5.023438 -21.21875 3.015625 -19.394531 1.796875 -15.75 C 1.773438 -15.675781 1.703125 -15.644531 1.578125 -15.65625 C 1.460938 -15.664062 1.40625 -15.707031 1.40625 -15.78125 C 1.5 -16.71875 1.601562 -17.929688 1.71875 -19.421875 C 1.84375 -20.921875 1.90625 -22.046875 1.90625 -22.796875 C 1.90625 -22.910156 1.96875 -22.96875 2.09375 -22.96875 C 2.226562 -22.96875 2.296875 -22.910156 2.296875 -22.796875 C 2.296875 -22.273438 2.960938 -22.015625 4.296875 -22.015625 C 6.316406 -21.953125 8.675781 -21.921875 11.375 -21.921875 C 12.757812 -21.921875 14.226562 -21.941406 15.78125 -21.984375 L 18.1875 -22.015625 C 19.070312 -22.015625 19.71875 -22.070312 20.125 -22.1875 C 20.539062 -22.3125 20.804688 -22.550781 20.921875 -22.90625 C 20.953125 -23 21.03125 -23.046875 21.15625 -23.046875 C 21.289062 -23.046875 21.359375 -23 21.359375 -22.90625 C 21.285156 -22.195312 21.207031 -21.066406 21.125 -19.515625 C 21.039062 -17.960938 21 -16.71875 21 -15.78125 C 21 -15.707031 20.9375 -15.671875 20.8125 -15.671875 C 20.695312 -15.671875 20.628906 -15.707031 20.609375 -15.78125 C 20.253906 -17.59375 19.59375 -18.953125 18.625 -19.859375 C 17.664062 -20.765625 16.484375 -21.21875 15.078125 -21.21875 C 14.398438 -21.21875 13.945312 -21.066406 13.71875 -20.765625 C 13.5 -20.472656 13.390625 -19.914062 13.390625 -19.09375 L 13.390625 -2.859375 C 13.390625 -2.128906 13.457031 -1.597656 13.59375 -1.265625 C 13.738281 -0.941406 14.007812 -0.71875 14.40625 -0.59375 C 14.8125 -0.476562 15.445312 -0.421875 16.3125 -0.421875 C 16.382812 -0.421875 16.421875 -0.347656 16.421875 -0.203125 C 16.421875 -0.0664062 16.382812 0 16.3125 0 C 15.46875 0 14.800781 -0.0078125 14.3125 -0.03125 L 11.375 -0.078125 L 8.53125 -0.03125 C 8.03125 -0.0078125 7.347656 0 6.484375 0 C 6.410156 0 6.375 -0.0664062 6.375 -0.203125 C 6.375 -0.347656 6.410156 -0.421875 6.484375 -0.421875 C 7.328125 -0.421875 7.953125 -0.476562 8.359375 -0.59375 C 8.773438 -0.71875 9.054688 -0.945312 9.203125 -1.28125 C 9.359375 -1.625 9.4375 -2.148438 9.4375 -2.859375 L 9.4375 -19.171875 C 9.4375 -19.960938 9.332031 -20.5 9.125 -20.78125 C 8.914062 -21.070312 8.484375 -21.21875 7.828125 -21.21875 Z M 7.828125 -21.21875 "/></g></g></g><g fill="#000000" fill-opacity="1"><g transform="translate(306.197288, 270.572907)"><g><path d="M 6.125 -18.46875 C 6.125 -17.613281 6.34375 -16.859375 6.78125 -16.203125 C 7.21875 -15.546875 7.753906 -14.96875 8.390625 -14.46875 C 9.023438 -13.976562 9.878906 -13.382812 10.953125 -12.6875 C 12.128906 -11.9375 13.066406 -11.273438 13.765625 -10.703125 C 14.472656 -10.140625 15.070312 -9.453125 15.5625 -8.640625 C 16.0625 -7.835938 16.3125 -6.90625 16.3125 -5.84375 C 16.3125 -4.625 15.984375 -3.535156 15.328125 -2.578125 C 14.671875 -1.628906 13.757812 -0.890625 12.59375 -0.359375 C 11.4375 0.160156 10.140625 0.421875 8.703125 0.421875 C 7.648438 0.421875 6.546875 0.273438 5.390625 -0.015625 C 4.242188 -0.304688 3.46875 -0.628906 3.0625 -0.984375 C 2.945312 -1.078125 2.859375 -1.164062 2.796875 -1.25 C 2.742188 -1.332031 2.71875 -1.46875 2.71875 -1.65625 L 2.609375 -7.265625 L 2.609375 -7.296875 C 2.609375 -7.390625 2.664062 -7.441406 2.78125 -7.453125 C 2.894531 -7.460938 2.96875 -7.421875 3 -7.328125 C 3.695312 -5.890625 4.3125 -4.722656 4.84375 -3.828125 C 5.375 -2.941406 6.039062 -2.15625 6.84375 -1.46875 C 7.65625 -0.789062 8.582031 -0.453125 9.625 -0.453125 C 10.5625 -0.453125 11.332031 -0.703125 11.9375 -1.203125 C 12.550781 -1.710938 12.859375 -2.582031 12.859375 -3.8125 C 12.859375 -4.84375 12.628906 -5.742188 12.171875 -6.515625 C 11.710938 -7.296875 11.15625 -7.953125 10.5 -8.484375 C 9.84375 -9.023438 8.9375 -9.671875 7.78125 -10.421875 C 6.65625 -11.148438 5.78125 -11.773438 5.15625 -12.296875 C 4.539062 -12.816406 4.007812 -13.4375 3.5625 -14.15625 C 3.113281 -14.882812 2.890625 -15.742188 2.890625 -16.734375 C 2.890625 -17.984375 3.242188 -19.035156 3.953125 -19.890625 C 4.671875 -20.742188 5.59375 -21.375 6.71875 -21.78125 C 7.851562 -22.195312 9.039062 -22.40625 10.28125 -22.40625 C 11.101562 -22.40625 11.9375 -22.328125 12.78125 -22.171875 C 13.632812 -22.023438 14.316406 -21.847656 14.828125 -21.640625 C 15.046875 -21.546875 15.1875 -21.441406 15.25 -21.328125 C 15.320312 -21.222656 15.359375 -21.085938 15.359375 -20.921875 L 15.359375 -15.75 C 15.359375 -15.675781 15.300781 -15.617188 15.1875 -15.578125 C 15.070312 -15.546875 15 -15.566406 14.96875 -15.640625 L 14.6875 -16.3125 C 14.101562 -17.789062 13.414062 -19.046875 12.625 -20.078125 C 11.84375 -21.117188 10.75 -21.640625 9.34375 -21.640625 C 8.394531 -21.640625 7.617188 -21.367188 7.015625 -20.828125 C 6.421875 -20.285156 6.125 -19.5 6.125 -18.46875 Z M 6.125 -18.46875 "/></g></g></g><g fill="#000000" fill-opacity="1"><g transform="translate(91.886749, 298.051792)"><g><path d="M 11.21875 -0.1875 C 11.269531 -0.1875 11.296875 -0.15625 11.296875 -0.09375 C 11.296875 -0.03125 11.269531 0 11.21875 0 C 11.007812 0 10.6875 -0.0078125 10.25 -0.03125 C 9.789062 -0.0507812 9.460938 -0.0625 9.265625 -0.0625 C 9.003906 -0.0625 8.6875 -0.0507812 8.3125 -0.03125 C 7.957031 -0.0078125 7.675781 0 7.46875 0 C 7.425781 0 7.40625 -0.03125 7.40625 -0.09375 C 7.40625 -0.15625 7.425781 -0.1875 7.46875 -0.1875 C 7.738281 -0.1875 7.929688 -0.210938 8.046875 -0.265625 C 8.171875 -0.328125 8.234375 -0.429688 8.234375 -0.578125 C 8.234375 -0.753906 8.128906 -1.050781 7.921875 -1.46875 L 6.296875 -4.6875 L 3.5 -4.6875 L 2.390625 -2.21875 C 2.253906 -1.914062 2.1875 -1.632812 2.1875 -1.375 C 2.1875 -1 2.316406 -0.707031 2.578125 -0.5 C 2.847656 -0.289062 3.207031 -0.1875 3.65625 -0.1875 C 3.707031 -0.1875 3.734375 -0.15625 3.734375 -0.09375 C 3.734375 -0.03125 3.707031 0 3.65625 0 C 3.46875 0 3.195312 -0.0078125 2.84375 -0.03125 C 2.445312 -0.0507812 2.101562 -0.0625 1.8125 -0.0625 C 1.53125 -0.0625 1.191406 -0.0507812 0.796875 -0.03125 C 0.441406 -0.0078125 0.15625 0 -0.0625 0 C -0.101562 0 -0.125 -0.03125 -0.125 -0.09375 C -0.125 -0.15625 -0.101562 -0.1875 -0.0625 -0.1875 C 0.226562 -0.1875 0.472656 -0.242188 0.671875 -0.359375 C 0.867188 -0.484375 1.066406 -0.695312 1.265625 -1 C 1.460938 -1.3125 1.695312 -1.769531 1.96875 -2.375 L 5.375 -9.84375 C 5.394531 -9.875 5.441406 -9.890625 5.515625 -9.890625 C 5.597656 -9.890625 5.644531 -9.875 5.65625 -9.84375 L 9.5625 -2.140625 C 9.925781 -1.398438 10.226562 -0.890625 10.46875 -0.609375 C 10.707031 -0.328125 10.957031 -0.1875 11.21875 -0.1875 Z M 3.703125 -5.125 L 6.078125 -5.125 L 4.828125 -7.59375 Z M 3.703125 -5.125 "/></g></g></g><g fill="#000000" fill-opacity="1"><g transform="translate(111.687303, 298.051792)"><g><path d="M 2.71875 -8.203125 C 2.71875 -7.828125 2.8125 -7.492188 3 -7.203125 C 3.195312 -6.910156 3.4375 -6.65625 3.71875 -6.4375 C 4.007812 -6.21875 4.394531 -5.953125 4.875 -5.640625 C 5.394531 -5.304688 5.8125 -5.015625 6.125 -4.765625 C 6.4375 -4.515625 6.703125 -4.207031 6.921875 -3.84375 C 7.140625 -3.476562 7.25 -3.0625 7.25 -2.59375 C 7.25 -2.050781 7.101562 -1.566406 6.8125 -1.140625 C 6.519531 -0.722656 6.113281 -0.394531 5.59375 -0.15625 C 5.082031 0.0703125 4.503906 0.1875 3.859375 0.1875 C 3.390625 0.1875 2.898438 0.125 2.390625 0 C 1.878906 -0.132812 1.535156 -0.28125 1.359375 -0.4375 C 1.304688 -0.476562 1.265625 -0.515625 1.234375 -0.546875 C 1.210938 -0.585938 1.203125 -0.648438 1.203125 -0.734375 L 1.15625 -3.21875 L 1.15625 -3.234375 C 1.15625 -3.273438 1.179688 -3.296875 1.234375 -3.296875 C 1.285156 -3.304688 1.316406 -3.289062 1.328125 -3.25 C 1.640625 -2.613281 1.910156 -2.097656 2.140625 -1.703125 C 2.378906 -1.304688 2.675781 -0.957031 3.03125 -0.65625 C 3.394531 -0.351562 3.8125 -0.203125 4.28125 -0.203125 C 4.695312 -0.203125 5.039062 -0.3125 5.3125 -0.53125 C 5.582031 -0.757812 5.71875 -1.144531 5.71875 -1.6875 C 5.71875 -2.144531 5.613281 -2.546875 5.40625 -2.890625 C 5.207031 -3.234375 4.960938 -3.523438 4.671875 -3.765625 C 4.378906 -4.015625 3.972656 -4.304688 3.453125 -4.640625 C 2.953125 -4.960938 2.5625 -5.238281 2.28125 -5.46875 C 2.007812 -5.695312 1.773438 -5.972656 1.578125 -6.296875 C 1.378906 -6.617188 1.28125 -7 1.28125 -7.4375 C 1.28125 -7.988281 1.4375 -8.453125 1.75 -8.828125 C 2.070312 -9.210938 2.484375 -9.492188 2.984375 -9.671875 C 3.484375 -9.859375 4.015625 -9.953125 4.578125 -9.953125 C 4.941406 -9.953125 5.3125 -9.914062 5.6875 -9.84375 C 6.0625 -9.78125 6.363281 -9.703125 6.59375 -9.609375 C 6.6875 -9.566406 6.75 -9.519531 6.78125 -9.46875 C 6.8125 -9.425781 6.828125 -9.367188 6.828125 -9.296875 L 6.828125 -7 C 6.828125 -6.96875 6.800781 -6.941406 6.75 -6.921875 C 6.695312 -6.910156 6.664062 -6.921875 6.65625 -6.953125 L 6.53125 -7.25 C 6.269531 -7.90625 5.960938 -8.460938 5.609375 -8.921875 C 5.265625 -9.378906 4.78125 -9.609375 4.15625 -9.609375 C 3.726562 -9.609375 3.378906 -9.488281 3.109375 -9.25 C 2.847656 -9.007812 2.71875 -8.660156 2.71875 -8.203125 Z M 2.71875 -8.203125 "/></g></g></g><g fill="#000000" fill-opacity="1"><g transform="translate(128.342444, 298.051792)"><g><path d="M 2.71875 -8.203125 C 2.71875 -7.828125 2.8125 -7.492188 3 -7.203125 C 3.195312 -6.910156 3.4375 -6.65625 3.71875 -6.4375 C 4.007812 -6.21875 4.394531 -5.953125 4.875 -5.640625 C 5.394531 -5.304688 5.8125 -5.015625 6.125 -4.765625 C 6.4375 -4.515625 6.703125 -4.207031 6.921875 -3.84375 C 7.140625 -3.476562 7.25 -3.0625 7.25 -2.59375 C 7.25 -2.050781 7.101562 -1.566406 6.8125 -1.140625 C 6.519531 -0.722656 6.113281 -0.394531 5.59375 -0.15625 C 5.082031 0.0703125 4.503906 0.1875 3.859375 0.1875 C 3.390625 0.1875 2.898438 0.125 2.390625 0 C 1.878906 -0.132812 1.535156 -0.28125 1.359375 -0.4375 C 1.304688 -0.476562 1.265625 -0.515625 1.234375 -0.546875 C 1.210938 -0.585938 1.203125 -0.648438 1.203125 -0.734375 L 1.15625 -3.21875 L 1.15625 -3.234375 C 1.15625 -3.273438 1.179688 -3.296875 1.234375 -3.296875 C 1.285156 -3.304688 1.316406 -3.289062 1.328125 -3.25 C 1.640625 -2.613281 1.910156 -2.097656 2.140625 -1.703125 C 2.378906 -1.304688 2.675781 -0.957031 3.03125 -0.65625 C 3.394531 -0.351562 3.8125 -0.203125 4.28125 -0.203125 C 4.695312 -0.203125 5.039062 -0.3125 5.3125 -0.53125 C 5.582031 -0.757812 5.71875 -1.144531 5.71875 -1.6875 C 5.71875 -2.144531 5.613281 -2.546875 5.40625 -2.890625 C 5.207031 -3.234375 4.960938 -3.523438 4.671875 -3.765625 C 4.378906 -4.015625 3.972656 -4.304688 3.453125 -4.640625 C 2.953125 -4.960938 2.5625 -5.238281 2.28125 -5.46875 C 2.007812 -5.695312 1.773438 -5.972656 1.578125 -6.296875 C 1.378906 -6.617188 1.28125 -7 1.28125 -7.4375 C 1.28125 -7.988281 1.4375 -8.453125 1.75 -8.828125 C 2.070312 -9.210938 2.484375 -9.492188 2.984375 -9.671875 C 3.484375 -9.859375 4.015625 -9.953125 4.578125 -9.953125 C 4.941406 -9.953125 5.3125 -9.914062 5.6875 -9.84375 C 6.0625 -9.78125 6.363281 -9.703125 6.59375 -9.609375 C 6.6875 -9.566406 6.75 -9.519531 6.78125 -9.46875 C 6.8125 -9.425781 6.828125 -9.367188 6.828125 -9.296875 L 6.828125 -7 C 6.828125 -6.96875 6.800781 -6.941406 6.75 -6.921875 C 6.695312 -6.910156 6.664062 -6.921875 6.65625 -6.953125 L 6.53125 -7.25 C 6.269531 -7.90625 5.960938 -8.460938 5.609375 -8.921875 C 5.265625 -9.378906 4.78125 -9.609375 4.15625 -9.609375 C 3.726562 -9.609375 3.378906 -9.488281 3.109375 -9.25 C 2.847656 -9.007812 2.71875 -8.660156 2.71875 -8.203125 Z M 2.71875 -8.203125 "/></g></g></g><g fill="#000000" fill-opacity="1"><g transform="translate(144.997588, 298.051792)"><g><path d="M 5.734375 0.1875 C 4.765625 0.1875 3.898438 -0.0351562 3.140625 -0.484375 C 2.378906 -0.941406 1.789062 -1.554688 1.375 -2.328125 C 0.96875 -3.109375 0.765625 -3.960938 0.765625 -4.890625 C 0.765625 -5.960938 1.035156 -6.878906 1.578125 -7.640625 C 2.117188 -8.410156 2.816406 -8.988281 3.671875 -9.375 C 4.523438 -9.757812 5.394531 -9.953125 6.28125 -9.953125 C 7.269531 -9.953125 8.140625 -9.71875 8.890625 -9.25 C 9.640625 -8.789062 10.210938 -8.179688 10.609375 -7.421875 C 11.015625 -6.660156 11.21875 -5.851562 11.21875 -5 C 11.21875 -4.039062 10.96875 -3.164062 10.46875 -2.375 C 9.96875 -1.582031 9.296875 -0.957031 8.453125 -0.5 C 7.617188 -0.0390625 6.710938 0.1875 5.734375 0.1875 Z M 6.25 -0.203125 C 6.832031 -0.203125 7.351562 -0.367188 7.8125 -0.703125 C 8.28125 -1.046875 8.644531 -1.539062 8.90625 -2.1875 C 9.164062 -2.84375 9.296875 -3.628906 9.296875 -4.546875 C 9.296875 -5.503906 9.148438 -6.359375 8.859375 -7.109375 C 8.566406 -7.867188 8.144531 -8.460938 7.59375 -8.890625 C 7.039062 -9.316406 6.394531 -9.53125 5.65625 -9.53125 C 4.707031 -9.53125 3.972656 -9.171875 3.453125 -8.453125 C 2.941406 -7.742188 2.6875 -6.75 2.6875 -5.46875 C 2.6875 -4.457031 2.835938 -3.550781 3.140625 -2.75 C 3.453125 -1.945312 3.878906 -1.320312 4.421875 -0.875 C 4.960938 -0.425781 5.570312 -0.203125 6.25 -0.203125 Z M 6.25 -0.203125 "/></g></g></g><g fill="#000000" fill-opacity="1"><g transform="translate(165.580582, 298.051792)"><g><path d="M 6.59375 -9.953125 C 7.050781 -9.953125 7.53125 -9.910156 8.03125 -9.828125 C 8.53125 -9.753906 8.921875 -9.65625 9.203125 -9.53125 C 9.296875 -9.5 9.351562 -9.457031 9.375 -9.40625 C 9.40625 -9.363281 9.429688 -9.285156 9.453125 -9.171875 L 9.640625 -7 C 9.640625 -6.96875 9.613281 -6.945312 9.5625 -6.9375 C 9.507812 -6.925781 9.476562 -6.941406 9.46875 -6.984375 C 9.113281 -7.804688 8.640625 -8.441406 8.046875 -8.890625 C 7.453125 -9.335938 6.765625 -9.5625 5.984375 -9.5625 C 4.953125 -9.5625 4.148438 -9.179688 3.578125 -8.421875 C 3.015625 -7.660156 2.734375 -6.640625 2.734375 -5.359375 C 2.734375 -4.390625 2.882812 -3.507812 3.1875 -2.71875 C 3.5 -1.925781 3.9375 -1.296875 4.5 -0.828125 C 5.0625 -0.367188 5.695312 -0.140625 6.40625 -0.140625 C 7.070312 -0.140625 7.664062 -0.359375 8.1875 -0.796875 C 8.71875 -1.242188 9.191406 -1.921875 9.609375 -2.828125 C 9.617188 -2.867188 9.648438 -2.882812 9.703125 -2.875 C 9.765625 -2.863281 9.796875 -2.84375 9.796875 -2.8125 L 9.5625 -0.6875 C 9.539062 -0.5625 9.515625 -0.476562 9.484375 -0.4375 C 9.460938 -0.40625 9.40625 -0.367188 9.3125 -0.328125 C 8.382812 0.015625 7.429688 0.1875 6.453125 0.1875 C 5.179688 0.1875 4.113281 -0.0625 3.25 -0.5625 C 2.394531 -1.070312 1.765625 -1.710938 1.359375 -2.484375 C 0.960938 -3.265625 0.765625 -4.082031 0.765625 -4.9375 C 0.765625 -5.925781 1.03125 -6.800781 1.5625 -7.5625 C 2.101562 -8.320312 2.820312 -8.910156 3.71875 -9.328125 C 4.613281 -9.742188 5.570312 -9.953125 6.59375 -9.953125 Z M 6.59375 -9.953125 "/></g></g></g><g fill="#000000" fill-opacity="1"><g transform="translate(184.645638, 298.051792)"><g><path d="M 3.546875 -1.265625 C 3.546875 -0.941406 3.570312 -0.707031 3.625 -0.5625 C 3.675781 -0.414062 3.78125 -0.316406 3.9375 -0.265625 C 4.09375 -0.210938 4.335938 -0.1875 4.671875 -0.1875 C 4.703125 -0.1875 4.71875 -0.15625 4.71875 -0.09375 C 4.71875 -0.03125 4.703125 0 4.671875 0 C 4.328125 0 4.050781 -0.00390625 3.84375 -0.015625 L 2.65625 -0.03125 L 1.5 -0.015625 C 1.289062 -0.00390625 1.007812 0 0.65625 0 C 0.632812 0 0.625 -0.03125 0.625 -0.09375 C 0.625 -0.15625 0.632812 -0.1875 0.65625 -0.1875 C 0.988281 -0.1875 1.234375 -0.210938 1.390625 -0.265625 C 1.546875 -0.316406 1.648438 -0.414062 1.703125 -0.5625 C 1.765625 -0.71875 1.796875 -0.953125 1.796875 -1.265625 L 1.796875 -8.515625 C 1.796875 -8.828125 1.765625 -9.054688 1.703125 -9.203125 C 1.648438 -9.347656 1.546875 -9.445312 1.390625 -9.5 C 1.234375 -9.5625 0.988281 -9.59375 0.65625 -9.59375 C 0.632812 -9.59375 0.625 -9.625 0.625 -9.6875 C 0.625 -9.75 0.632812 -9.78125 0.65625 -9.78125 L 1.5 -9.765625 C 1.976562 -9.742188 2.363281 -9.734375 2.65625 -9.734375 C 2.976562 -9.734375 3.378906 -9.742188 3.859375 -9.765625 L 4.671875 -9.78125 C 4.703125 -9.78125 4.71875 -9.75 4.71875 -9.6875 C 4.71875 -9.625 4.703125 -9.59375 4.671875 -9.59375 C 4.347656 -9.59375 4.101562 -9.5625 3.9375 -9.5 C 3.78125 -9.4375 3.675781 -9.328125 3.625 -9.171875 C 3.570312 -9.023438 3.546875 -8.796875 3.546875 -8.484375 Z M 3.546875 -1.265625 "/></g></g></g><g fill="#000000" fill-opacity="1"><g transform="translate(198.593529, 298.051792)"><g><path d="M 11.21875 -0.1875 C 11.269531 -0.1875 11.296875 -0.15625 11.296875 -0.09375 C 11.296875 -0.03125 11.269531 0 11.21875 0 C 11.007812 0 10.6875 -0.0078125 10.25 -0.03125 C 9.789062 -0.0507812 9.460938 -0.0625 9.265625 -0.0625 C 9.003906 -0.0625 8.6875 -0.0507812 8.3125 -0.03125 C 7.957031 -0.0078125 7.675781 0 7.46875 0 C 7.425781 0 7.40625 -0.03125 7.40625 -0.09375 C 7.40625 -0.15625 7.425781 -0.1875 7.46875 -0.1875 C 7.738281 -0.1875 7.929688 -0.210938 8.046875 -0.265625 C 8.171875 -0.328125 8.234375 -0.429688 8.234375 -0.578125 C 8.234375 -0.753906 8.128906 -1.050781 7.921875 -1.46875 L 6.296875 -4.6875 L 3.5 -4.6875 L 2.390625 -2.21875 C 2.253906 -1.914062 2.1875 -1.632812 2.1875 -1.375 C 2.1875 -1 2.316406 -0.707031 2.578125 -0.5 C 2.847656 -0.289062 3.207031 -0.1875 3.65625 -0.1875 C 3.707031 -0.1875 3.734375 -0.15625 3.734375 -0.09375 C 3.734375 -0.03125 3.707031 0 3.65625 0 C 3.46875 0 3.195312 -0.0078125 2.84375 -0.03125 C 2.445312 -0.0507812 2.101562 -0.0625 1.8125 -0.0625 C 1.53125 -0.0625 1.191406 -0.0507812 0.796875 -0.03125 C 0.441406 -0.0078125 0.15625 0 -0.0625 0 C -0.101562 0 -0.125 -0.03125 -0.125 -0.09375 C -0.125 -0.15625 -0.101562 -0.1875 -0.0625 -0.1875 C 0.226562 -0.1875 0.472656 -0.242188 0.671875 -0.359375 C 0.867188 -0.484375 1.066406 -0.695312 1.265625 -1 C 1.460938 -1.3125 1.695312 -1.769531 1.96875 -2.375 L 5.375 -9.84375 C 5.394531 -9.875 5.441406 -9.890625 5.515625 -9.890625 C 5.597656 -9.890625 5.644531 -9.875 5.65625 -9.84375 L 9.5625 -2.140625 C 9.925781 -1.398438 10.226562 -0.890625 10.46875 -0.609375 C 10.707031 -0.328125 10.957031 -0.1875 11.21875 -0.1875 Z M 3.703125 -5.125 L 6.078125 -5.125 L 4.828125 -7.59375 Z M 3.703125 -5.125 "/></g></g></g><g fill="#000000" fill-opacity="1"><g transform="translate(218.394088, 298.051792)"><g><path d="M 3.46875 -9.421875 C 2.226562 -9.421875 1.335938 -8.613281 0.796875 -7 C 0.785156 -6.96875 0.753906 -6.953125 0.703125 -6.953125 C 0.648438 -6.960938 0.625 -6.984375 0.625 -7.015625 C 0.664062 -7.429688 0.710938 -7.96875 0.765625 -8.625 C 0.816406 -9.289062 0.84375 -9.789062 0.84375 -10.125 C 0.84375 -10.175781 0.867188 -10.203125 0.921875 -10.203125 C 0.984375 -10.203125 1.015625 -10.175781 1.015625 -10.125 C 1.015625 -9.894531 1.3125 -9.78125 1.90625 -9.78125 C 2.800781 -9.75 3.851562 -9.734375 5.0625 -9.734375 C 5.675781 -9.734375 6.328125 -9.742188 7.015625 -9.765625 L 8.078125 -9.78125 C 8.472656 -9.78125 8.757812 -9.804688 8.9375 -9.859375 C 9.125 -9.910156 9.242188 -10.015625 9.296875 -10.171875 C 9.304688 -10.210938 9.335938 -10.234375 9.390625 -10.234375 C 9.453125 -10.234375 9.484375 -10.210938 9.484375 -10.171875 C 9.453125 -9.859375 9.414062 -9.359375 9.375 -8.671875 C 9.34375 -7.984375 9.328125 -7.429688 9.328125 -7.015625 C 9.328125 -6.984375 9.300781 -6.96875 9.25 -6.96875 C 9.195312 -6.96875 9.164062 -6.984375 9.15625 -7.015625 C 9 -7.816406 8.707031 -8.414062 8.28125 -8.8125 C 7.851562 -9.21875 7.328125 -9.421875 6.703125 -9.421875 C 6.398438 -9.421875 6.195312 -9.351562 6.09375 -9.21875 C 6 -9.09375 5.953125 -8.847656 5.953125 -8.484375 L 5.953125 -1.265625 C 5.953125 -0.941406 5.984375 -0.707031 6.046875 -0.5625 C 6.109375 -0.414062 6.226562 -0.316406 6.40625 -0.265625 C 6.582031 -0.210938 6.863281 -0.1875 7.25 -0.1875 C 7.28125 -0.1875 7.296875 -0.15625 7.296875 -0.09375 C 7.296875 -0.03125 7.28125 0 7.25 0 C 6.875 0 6.578125 -0.00390625 6.359375 -0.015625 L 5.0625 -0.03125 L 3.78125 -0.015625 C 3.5625 -0.00390625 3.257812 0 2.875 0 C 2.84375 0 2.828125 -0.03125 2.828125 -0.09375 C 2.828125 -0.15625 2.84375 -0.1875 2.875 -0.1875 C 3.25 -0.1875 3.53125 -0.210938 3.71875 -0.265625 C 3.90625 -0.316406 4.03125 -0.414062 4.09375 -0.5625 C 4.164062 -0.71875 4.203125 -0.953125 4.203125 -1.265625 L 4.203125 -8.515625 C 4.203125 -8.867188 4.148438 -9.109375 4.046875 -9.234375 C 3.953125 -9.359375 3.757812 -9.421875 3.46875 -9.421875 Z M 3.46875 -9.421875 "/></g></g></g><g fill="#000000" fill-opacity="1"><g transform="translate(237.052275, 298.051792)"><g><path d="M 3.546875 -1.265625 C 3.546875 -0.941406 3.570312 -0.707031 3.625 -0.5625 C 3.675781 -0.414062 3.78125 -0.316406 3.9375 -0.265625 C 4.09375 -0.210938 4.335938 -0.1875 4.671875 -0.1875 C 4.703125 -0.1875 4.71875 -0.15625 4.71875 -0.09375 C 4.71875 -0.03125 4.703125 0 4.671875 0 C 4.328125 0 4.050781 -0.00390625 3.84375 -0.015625 L 2.65625 -0.03125 L 1.5 -0.015625 C 1.289062 -0.00390625 1.007812 0 0.65625 0 C 0.632812 0 0.625 -0.03125 0.625 -0.09375 C 0.625 -0.15625 0.632812 -0.1875 0.65625 -0.1875 C 0.988281 -0.1875 1.234375 -0.210938 1.390625 -0.265625 C 1.546875 -0.316406 1.648438 -0.414062 1.703125 -0.5625 C 1.765625 -0.71875 1.796875 -0.953125 1.796875 -1.265625 L 1.796875 -8.515625 C 1.796875 -8.828125 1.765625 -9.054688 1.703125 -9.203125 C 1.648438 -9.347656 1.546875 -9.445312 1.390625 -9.5 C 1.234375 -9.5625 0.988281 -9.59375 0.65625 -9.59375 C 0.632812 -9.59375 0.625 -9.625 0.625 -9.6875 C 0.625 -9.75 0.632812 -9.78125 0.65625 -9.78125 L 1.5 -9.765625 C 1.976562 -9.742188 2.363281 -9.734375 2.65625 -9.734375 C 2.976562 -9.734375 3.378906 -9.742188 3.859375 -9.765625 L 4.671875 -9.78125 C 4.703125 -9.78125 4.71875 -9.75 4.71875 -9.6875 C 4.71875 -9.625 4.703125 -9.59375 4.671875 -9.59375 C 4.347656 -9.59375 4.101562 -9.5625 3.9375 -9.5 C 3.78125 -9.4375 3.675781 -9.328125 3.625 -9.171875 C 3.570312 -9.023438 3.546875 -8.796875 3.546875 -8.484375 Z M 3.546875 -1.265625 "/></g></g></g><g fill="#000000" fill-opacity="1"><g transform="translate(251.000166, 298.051792)"><g><path d="M 5.734375 0.1875 C 4.765625 0.1875 3.898438 -0.0351562 3.140625 -0.484375 C 2.378906 -0.941406 1.789062 -1.554688 1.375 -2.328125 C 0.96875 -3.109375 0.765625 -3.960938 0.765625 -4.890625 C 0.765625 -5.960938 1.035156 -6.878906 1.578125 -7.640625 C 2.117188 -8.410156 2.816406 -8.988281 3.671875 -9.375 C 4.523438 -9.757812 5.394531 -9.953125 6.28125 -9.953125 C 7.269531 -9.953125 8.140625 -9.71875 8.890625 -9.25 C 9.640625 -8.789062 10.210938 -8.179688 10.609375 -7.421875 C 11.015625 -6.660156 11.21875 -5.851562 11.21875 -5 C 11.21875 -4.039062 10.96875 -3.164062 10.46875 -2.375 C 9.96875 -1.582031 9.296875 -0.957031 8.453125 -0.5 C 7.617188 -0.0390625 6.710938 0.1875 5.734375 0.1875 Z M 6.25 -0.203125 C 6.832031 -0.203125 7.351562 -0.367188 7.8125 -0.703125 C 8.28125 -1.046875 8.644531 -1.539062 8.90625 -2.1875 C 9.164062 -2.84375 9.296875 -3.628906 9.296875 -4.546875 C 9.296875 -5.503906 9.148438 -6.359375 8.859375 -7.109375 C 8.566406 -7.867188 8.144531 -8.460938 7.59375 -8.890625 C 7.039062 -9.316406 6.394531 -9.53125 5.65625 -9.53125 C 4.707031 -9.53125 3.972656 -9.171875 3.453125 -8.453125 C 2.941406 -7.742188 2.6875 -6.75 2.6875 -5.46875 C 2.6875 -4.457031 2.835938 -3.550781 3.140625 -2.75 C 3.453125 -1.945312 3.878906 -1.320312 4.421875 -0.875 C 4.960938 -0.425781 5.570312 -0.203125 6.25 -0.203125 Z M 6.25 -0.203125 "/></g></g></g><g fill="#000000" fill-opacity="1"><g transform="translate(271.583161, 298.051792)"><g><path d="M 11.3125 -9.78125 C 11.332031 -9.78125 11.34375 -9.75 11.34375 -9.6875 C 11.34375 -9.625 11.332031 -9.59375 11.3125 -9.59375 C 10.894531 -9.59375 10.566406 -9.425781 10.328125 -9.09375 C 10.085938 -8.769531 9.96875 -8.332031 9.96875 -7.78125 L 9.96875 0.234375 C 9.96875 0.265625 9.941406 0.285156 9.890625 0.296875 C 9.847656 0.304688 9.816406 0.300781 9.796875 0.28125 L 2.453125 -8.078125 L 2.453125 -1.984375 C 2.453125 -1.429688 2.566406 -0.992188 2.796875 -0.671875 C 3.023438 -0.347656 3.34375 -0.1875 3.75 -0.1875 C 3.769531 -0.1875 3.78125 -0.15625 3.78125 -0.09375 C 3.78125 -0.03125 3.769531 0 3.75 0 C 3.457031 0 3.234375 -0.00390625 3.078125 -0.015625 L 2.234375 -0.03125 L 1.265625 -0.015625 C 1.085938 -0.00390625 0.832031 0 0.5 0 C 0.46875 0 0.453125 -0.03125 0.453125 -0.09375 C 0.453125 -0.15625 0.46875 -0.1875 0.5 -0.1875 C 0.957031 -0.1875 1.316406 -0.347656 1.578125 -0.671875 C 1.847656 -0.992188 1.984375 -1.429688 1.984375 -1.984375 L 1.984375 -8.609375 C 1.640625 -8.984375 1.34375 -9.238281 1.09375 -9.375 C 0.851562 -9.519531 0.601562 -9.59375 0.34375 -9.59375 C 0.320312 -9.59375 0.3125 -9.625 0.3125 -9.6875 C 0.3125 -9.75 0.320312 -9.78125 0.34375 -9.78125 L 1 -9.765625 C 1.132812 -9.753906 1.332031 -9.75 1.59375 -9.75 L 2.78125 -9.765625 C 2.925781 -9.773438 3.101562 -9.78125 3.3125 -9.78125 C 3.394531 -9.78125 3.457031 -9.757812 3.5 -9.71875 C 3.539062 -9.675781 3.613281 -9.585938 3.71875 -9.453125 C 3.90625 -9.210938 4.035156 -9.050781 4.109375 -8.96875 L 9.515625 -2.71875 L 9.515625 -7.78125 C 9.515625 -8.34375 9.398438 -8.785156 9.171875 -9.109375 C 8.941406 -9.429688 8.625 -9.59375 8.21875 -9.59375 C 8.195312 -9.59375 8.1875 -9.625 8.1875 -9.6875 C 8.1875 -9.75 8.195312 -9.78125 8.21875 -9.78125 L 8.890625 -9.765625 C 9.222656 -9.742188 9.503906 -9.734375 9.734375 -9.734375 C 9.941406 -9.734375 10.234375 -9.742188 10.609375 -9.765625 Z M 11.3125 -9.78125 "/></g></g></g><path fill="#000000" d="M 236.167969 206.863281 L 187.054688 234.976562 L 138.078125 206.460938 C 109.539062 189.84375 92.027344 159.273438 92.125 126.25 L 92.371094 45.703125 L 187.867188 9.792969 L 282.957031 46.40625 L 282.710938 126.871094 C 282.613281 159.9375 264.867188 190.433594 236.167969 206.863281 " fill-opacity="1" fill-rule="nonzero"/><g clip-path="url(#fe7caa7bfe)"><path stroke-linecap="round" transform="matrix(0.0155475, 0, 0, -0.0155475, 46.800251, 263.217024)" fill="none" stroke-linejoin="round" d="M 12180.200207 3624.61835 L 9021.03008 1816.399215 L 5870.904817 3650.496712 C 4035.299843 4719.298185 2908.962983 6685.802446 2915.495385 8809.838095 L 2931.072651 13990.284163 L 9073.289296 16299.990778 L 15189.376333 13945.311087 L 15173.799067 8769.638698 C 15167.266665 6642.83934 14025.855031 4681.360004 12180.200207 3624.61835 Z M 12180.200207 3624.61835 " stroke="#ffffff" stroke-width="212.897" stroke-opacity="1" stroke-miterlimit="10"/></g><path fill="#000000" d="M 187.460938 39.085938 L 118.464844 65.03125 L 118.3125 116.132812 L 187.460938 116.132812 L 187.460938 39.085938 " fill-opacity="1" fill-rule="nonzero"/><path stroke-linecap="round" transform="matrix(0.0137509, 0, 0, -0.0137509, 46.800251, 263.217024)" fill="none" stroke-linejoin="round" d="M 10229.519488 16300.002623 L 5211.932105 14413.187507 L 5200.569172 10696.656016 L 10229.519488 10696.656016 Z M 10229.519488 16300.002623 " stroke="#ffffff" stroke-width="240.72099" stroke-opacity="1" stroke-miterlimit="10"/><path fill="#ffffff" d="M 256.597656 116.132812 L 256.75 65.542969 L 187.753906 38.976562 L 187.460938 39.085938 L 187.460938 116.132812 L 256.597656 116.132812 " fill-opacity="1" fill-rule="nonzero"/><path stroke-linecap="round" transform="matrix(0.0137575, 0, 0, -0.0137575, 46.800251, 263.217024)" fill="none" stroke-linejoin="round" d="M 15249.97618 10691.497917 L 15261.049697 14369.041574 L 10245.881876 16300.092718 L 10224.586649 16291.858564 L 10224.586649 10691.497917 Z M 15249.97618 10691.497917 " stroke="#ffffff" stroke-width="240.60201" stroke-opacity="1" stroke-miterlimit="10"/><path fill="#ffffff" d="M 118.3125 116.132812 L 118.289062 123.472656 C 118.214844 147.433594 130.921875 169.613281 151.628906 181.671875 L 187.164062 202.363281 L 187.460938 202.195312 L 187.460938 116.132812 L 118.3125 116.132812 " fill-opacity="1" fill-rule="nonzero"/><path stroke-linecap="round" transform="matrix(0.0132692, 0, 0, -0.0132692, 46.800251, 263.217024)" fill="none" stroke-linejoin="round" d="M 5389.349785 11084.650145 L 5387.583473 10531.500358 C 5381.990155 8725.741551 6339.625205 7054.222395 7900.161141 6145.455288 L 10578.18329 4586.096892 L 10600.556565 4598.755456 L 10600.556565 11084.650145 Z M 5389.349785 11084.650145 " stroke="#ffffff" stroke-width="249.45" stroke-opacity="1" stroke-miterlimit="10"/><path fill="#000000" d="M 187.460938 116.132812 L 187.460938 202.195312 L 222.800781 181.964844 C 243.625 170.042969 256.5 147.914062 256.574219 123.921875 L 256.597656 116.132812 L 187.460938 116.132812 " fill-opacity="1" fill-rule="nonzero"/><path stroke-linecap="round" transform="matrix(0.0132692, 0, 0, -0.0132692, 46.800251, 263.217024)" fill="none" stroke-linejoin="round" d="M 10600.556565 11084.650145 L 10600.556565 4598.755456 L 13263.859455 6123.376398 C 14833.226947 7021.840023 15803.52056 8689.532172 15809.113879 10497.64606 L 15810.88019 11084.650145 Z M 10600.556565 11084.650145 " stroke="#ffffff" stroke-width="249.45" stroke-opacity="1" stroke-miterlimit="10"/><g clip-path="url(#5c712f7143)"><path fill="#ffffff" d="M 139.3125 99.285156 L 139.3125 109.460938 C 139.3125 110.503906 139.992188 110.984375 140.835938 110.984375 L 171.527344 110.984375 C 172.9375 110.984375 173.058594 110.097656 173.058594 108.890625 L 173.058594 95.070312 C 173.058594 94.210938 172.171875 92.289062 171.117188 93.375 C 169.835938 94.703125 169.847656 93.519531 168.617188 93.925781 C 167.386719 94.335938 166.964844 93.339844 166.113281 94.042969 C 165.265625 94.75 164.238281 93.546875 163.714844 94.277344 C 163.09375 95.296875 162.222656 94.507812 161.929688 92.699219 C 161.691406 91.214844 160.550781 92.84375 159.902344 90.511719 C 159.492188 88.414062 158.578125 89.214844 158.066406 87.429688 C 157.671875 86.066406 156.882812 85.757812 156.101562 86.4375 C 155.3125 87.121094 154.03125 87.863281 153.699219 86.398438 C 153.410156 85.324219 154.609375 85.132812 154.320312 83.851562 C 154.03125 82.570312 154.511719 80.808594 154.820312 79.972656 C 155.128906 79.136719 154.234375 78.921875 153.5625 79.09375 C 152.890625 79.269531 152.671875 79.007812 151.878906 77.925781 C 151.089844 76.839844 148.628906 74.3125 147.675781 74.023438 C 146.726562 73.734375 146.832031 73.570312 147.097656 72.78125 C 147.367188 71.996094 146.894531 71.921875 146.457031 71.253906 L 145.429688 69.691406 C 144.960938 68.976562 144.90625 68.546875 144.90625 67.738281 L 144.90625 63.164062 C 144.90625 62.5625 144.574219 62.328125 144.132812 62.328125 L 140.097656 62.328125 C 139.5625 62.328125 139.402344 62.734375 139.402344 63.160156 L 139.402344 80.292969 C 139.402344 80.292969 139.378906 81.183594 139.839844 81.800781 C 140.292969 82.421875 139.777344 83.851562 140.625 84.53125 C 141.472656 85.214844 142.898438 85.296875 142.527344 86.210938 C 142.15625 87.117188 141.636719 87.96875 141.324219 88.980469 C 141.015625 89.996094 140.167969 90.203125 140.066406 91.089844 C 139.960938 91.980469 137.746094 94.257812 138.574219 95.375 C 139.402344 96.492188 140.191406 96.71875 139.792969 97.960938 C 139.402344 99.203125 139.3125 98.8125 139.3125 99.285156 Z M 139.3125 99.285156 " fill-opacity="1" fill-rule="nonzero"/></g><g clip-path="url(#1f4bbcbd1d)"><path fill="#ffffff" d="M 239.226562 145.1875 C 237.332031 137.964844 235.152344 133.214844 230.125 131.851562 C 229.359375 131.640625 228.636719 131.539062 227.917969 131.539062 C 226.398438 131.539062 225.179688 131.996094 223.996094 132.441406 C 222.910156 132.847656 221.691406 133.292969 220.011719 133.445312 L 218.753906 133.480469 C 218.753906 133.488281 214.953125 132.929688 213.632812 132.433594 C 212.453125 131.992188 211.238281 131.539062 209.726562 131.539062 C 209.007812 131.539062 208.28125 131.640625 207.515625 131.847656 C 202.484375 133.214844 200.304688 137.964844 198.414062 145.1875 C 196.222656 153.550781 196.828125 159.160156 200.074219 160.574219 C 200.605469 160.804688 201.160156 160.921875 201.730469 160.921875 C 204.617188 160.921875 207.269531 157.886719 209.207031 155.667969 L 209.738281 155.058594 C 211.316406 153.207031 214.628906 152.148438 218.820312 152.148438 C 223.378906 152.148438 226.179688 153.046875 227.902344 155.058594 L 228.429688 155.671875 C 230.367188 157.886719 233.019531 160.917969 235.910156 160.917969 C 236.480469 160.917969 237.035156 160.800781 237.558594 160.574219 C 240.804688 159.160156 241.414062 153.550781 239.226562 145.1875 Z M 211.921875 145.75 L 209.753906 145.75 L 209.753906 147.851562 C 209.753906 148.621094 209.078125 149.269531 208.277344 149.269531 C 207.472656 149.269531 206.796875 148.621094 206.796875 147.851562 L 206.796875 145.75 L 204.761719 145.75 C 203.992188 145.75 203.339844 145.074219 203.339844 144.273438 C 203.339844 143.46875 203.992188 142.792969 204.761719 142.792969 L 206.796875 142.792969 L 206.796875 140.691406 C 206.796875 139.921875 207.472656 139.269531 208.277344 139.269531 C 209.078125 139.269531 209.753906 139.921875 209.753906 140.691406 L 209.753906 142.792969 L 211.921875 142.792969 C 212.6875 142.792969 213.339844 143.46875 213.339844 144.273438 C 213.339844 145.074219 212.691406 145.75 211.921875 145.75 Z M 227.3125 148.328125 C 226.113281 148.328125 225.136719 147.351562 225.136719 146.152344 C 225.136719 144.953125 226.113281 143.976562 227.3125 143.976562 C 228.511719 143.976562 229.484375 144.953125 229.484375 146.152344 C 229.484375 147.351562 228.507812 148.328125 227.3125 148.328125 Z M 231.367188 144.269531 C 230.167969 144.269531 229.195312 143.292969 229.195312 142.09375 C 229.195312 140.898438 230.171875 139.921875 231.367188 139.921875 C 232.566406 139.921875 233.542969 140.898438 233.542969 142.09375 C 233.542969 143.292969 232.566406 144.269531 231.367188 144.269531 Z M 231.367188 144.269531 " fill-opacity="1" fill-rule="nonzero"/></g><path fill="#000000" d="M 216.65625 100.421875 L 227.578125 100.421875 L 227.578125 102.179688 L 216.65625 102.179688 Z M 215.640625 104.207031 L 228.59375 104.207031 C 229.152344 104.207031 229.605469 103.753906 229.605469 103.195312 L 229.605469 99.40625 C 229.605469 98.847656 229.152344 98.394531 228.59375 98.394531 L 215.640625 98.394531 C 215.082031 98.394531 214.625 98.847656 214.625 99.40625 L 214.625 103.195312 C 214.625 103.753906 215.082031 104.207031 215.640625 104.207031 " fill-opacity="1" fill-rule="nonzero"/><g clip-path="url(#94bd6721be)"><path fill="#000000" d="M 239.300781 67.28125 C 238.871094 70 237.582031 75.828125 234.316406 78.222656 C 235.285156 75.410156 235.933594 71.652344 236.117188 66.527344 C 236.136719 66.527344 236.152344 66.535156 236.171875 66.535156 L 238.65625 66.535156 C 238.921875 66.535156 239.082031 66.675781 239.15625 66.761719 C 239.230469 66.847656 239.34375 67.027344 239.300781 67.28125 Z M 225.140625 85.125 C 223.882812 85.648438 223.070312 86.875 223.070312 88.253906 L 223.070312 90.96875 C 223.070312 92.414062 224.242188 93.585938 225.6875 93.585938 L 226.445312 93.585938 C 227.070312 93.585938 227.59375 94.03125 227.71875 94.621094 L 216.515625 94.621094 C 216.640625 94.03125 217.164062 93.585938 217.789062 93.585938 L 218.546875 93.585938 C 219.992188 93.585938 221.164062 92.414062 221.164062 90.96875 L 221.164062 88.164062 C 221.164062 86.832031 220.398438 85.617188 219.214844 85.066406 C 214.699219 82.96875 210.285156 79.625 210.097656 64.421875 L 234.136719 64.421875 C 233.945312 81.457031 228.867188 83.574219 225.140625 85.125 Z M 231.464844 105.464844 L 212.769531 105.464844 L 212.769531 96.648438 L 231.464844 96.648438 Z M 232.992188 108.90625 L 211.242188 108.90625 L 211.242188 107.492188 L 232.992188 107.492188 Z M 205.304688 67.28125 C 205.265625 67.027344 205.382812 66.847656 205.453125 66.761719 C 205.527344 66.675781 205.6875 66.535156 205.953125 66.535156 L 208.125 66.535156 C 208.324219 71.53125 209.015625 75.222656 210.03125 78.015625 C 206.957031 75.507812 205.726562 69.925781 205.304688 67.28125 Z M 240.699219 65.445312 C 240.191406 64.847656 239.445312 64.503906 238.65625 64.503906 L 236.171875 64.503906 C 236.167969 64.503906 236.164062 64.503906 236.160156 64.503906 C 236.164062 64.140625 236.171875 63.78125 236.171875 63.40625 C 236.171875 62.847656 235.71875 62.394531 235.15625 62.394531 L 209.078125 62.394531 C 208.515625 62.394531 208.0625 62.847656 208.0625 63.40625 C 208.0625 63.78125 208.070312 64.140625 208.074219 64.503906 L 205.953125 64.503906 C 205.164062 64.503906 204.421875 64.847656 203.910156 65.445312 C 203.402344 66.042969 203.179688 66.828125 203.304688 67.601562 C 204.003906 71.992188 205.984375 79.449219 211.4375 81.023438 C 213.339844 84.226562 215.832031 85.734375 218.359375 86.90625 C 218.832031 87.125 219.136719 87.621094 219.136719 88.164062 L 219.136719 90.96875 C 219.136719 91.289062 218.867188 91.558594 218.546875 91.558594 L 217.789062 91.558594 C 216.042969 91.558594 214.609375 92.910156 214.46875 94.621094 L 211.753906 94.621094 C 211.195312 94.621094 210.738281 95.074219 210.738281 95.632812 L 210.738281 105.464844 L 210.226562 105.464844 C 209.667969 105.464844 209.214844 105.917969 209.214844 106.476562 L 209.214844 109.921875 C 209.214844 110.484375 209.667969 110.9375 210.226562 110.9375 L 234.003906 110.9375 C 234.566406 110.9375 235.019531 110.484375 235.019531 109.921875 L 235.019531 106.476562 C 235.019531 105.917969 234.566406 105.464844 234.003906 105.464844 L 233.496094 105.464844 L 233.496094 95.632812 C 233.496094 95.074219 233.039062 94.621094 232.480469 94.621094 L 229.765625 94.621094 C 229.625 92.910156 228.191406 91.558594 226.445312 91.558594 L 225.6875 91.558594 C 225.363281 91.558594 225.097656 91.292969 225.097656 90.96875 L 225.097656 88.253906 C 225.097656 87.699219 225.421875 87.207031 225.921875 87 C 228.621094 85.871094 231.183594 84.4375 233.070312 81.050781 C 238.597656 79.539062 240.601562 72.019531 241.304688 67.601562 C 241.429688 66.828125 241.207031 66.042969 240.699219 65.445312 " fill-opacity="1" fill-rule="nonzero"/></g><g clip-path="url(#7929d46fbd)"><path fill="#000000" d="M 137.40625 162.664062 L 131.953125 162.664062 L 133.773438 155.96875 L 133.773438 144.203125 L 135.589844 145.015625 L 135.589844 155.867188 Z M 137.40625 162.664062 " fill-opacity="1" fill-rule="nonzero"/></g><g clip-path="url(#df1e3c7467)"><path fill="#000000" d="M 155.28125 151.710938 L 141.902344 145.777344 L 135.589844 142.988281 L 133.773438 142.175781 L 130.589844 140.804688 L 133.722656 139.386719 L 155.28125 129.851562 L 179.96875 140.804688 L 168.660156 145.777344 Z M 155.28125 151.710938 " fill-opacity="1" fill-rule="nonzero"/></g><path fill="#000000" d="M 171.488281 153.941406 L 155.28125 160.382812 L 139.074219 153.941406 C 139.074219 151.355469 139.679688 149.125 140.738281 147.347656 L 155.28125 153.738281 L 169.769531 147.347656 C 170.882812 149.125 171.488281 151.304688 171.488281 153.941406 Z M 171.488281 153.941406 " fill-opacity="1" fill-rule="nonzero"/></svg>